<svg xmlns="http://www.w3.org/2000/svg" viewBox="0 0 689.09 690.61"><defs><style>.cls-1{fill:#fff;}.cls-2{fill:#183119;}.cls-3{fill:none;stroke:#183119;stroke-miterlimit:10;stroke-width:3px;}.cls-4{fill:#fff200;}</style></defs><g id="Layer_2" data-name="Layer 2"><g id="Layer_2-2" data-name="Layer 2"><path class="cls-1" d="M344.43,684.07A339.5,339.5,0,0,1,104.37,104.51,339.5,339.5,0,0,1,584.5,584.64,337.3,337.3,0,0,1,344.43,684.07Z"/><path class="cls-2" d="M344.43,8.57a336.09,336.09,0,0,1,130.79,645.6A336.09,336.09,0,0,1,213.65,35,333.87,333.87,0,0,1,344.43,8.57m0-7c-189.43,0-343,153.57-343,343s153.57,343,343,343,343-153.56,343-343-153.56-343-343-343Z"/><path class="cls-3" d="M344.5,1.5c189.43,0,343,153.57,343,343s-153.57,343-343,343-343-153.57-343-343"/><path class="cls-3" d="M1.5,344.5c0-189.43,153.57-343,343-343"/><path class="cls-3" d="M352,1.59A171.36,171.36,0,0,1,493,87.17h0a171.6,171.6,0,0,1,28.34-36.66Q516,47.27,510.5,44.25A172.3,172.3,0,0,1,493,87.14a172.51,172.51,0,0,1-21.2-61.26A341.79,341.79,0,0,0,352,1.59"/><path class="cls-3" d="M195.86,601.86A171,171,0,0,1,217.09,663,341.86,341.86,0,0,0,335.7,687.39,171.49,171.49,0,0,1,195.86,601.86Z"/><path class="cls-3" d="M167.65,638.39q5.28,3.18,10.69,6.17a171.72,171.72,0,0,1,17.52-42.7A171.59,171.59,0,0,1,167.65,638.39Z"/><path class="cls-3" d="M5.07,295.64a170.89,170.89,0,0,1,42.19,48.8,171.49,171.49,0,0,1-5.54-161A340.92,340.92,0,0,0,5.07,295.64"/><path class="cls-3" d="M641.57,172.94c-.45-.79-.88-1.59-1.32-2.38A344.59,344.59,0,0,0,556.7,74.93,171.08,171.08,0,0,1,493,87.17h0A171.43,171.43,0,0,1,641.57,172.94Z"/><path class="cls-3" d="M1.67,350.64a171.62,171.62,0,0,1,45.62-6.14h0a171.62,171.62,0,0,1-45.62-6.14"/><path class="cls-3" d="M344.36,516.18a171.43,171.43,0,0,1-148.49,85.65h0A171.31,171.31,0,0,1,53.59,526.1,344.83,344.83,0,0,0,132.41,614a171.63,171.63,0,0,1,211.94,73.5h0A171.45,171.45,0,0,1,344.36,516.18Z"/><path class="cls-3" d="M344.37,1.5A171.45,171.45,0,0,1,195.86,87.16a171.43,171.43,0,0,1,148.43,85.53,171.45,171.45,0,0,1,0-171"/><polygon class="cls-3" points="641.62 172.87 641.62 172.87 641.61 172.87 641.62 172.87"/><path class="cls-3" d="M493,430.21a171.41,171.41,0,0,1,0-171.42A171.45,171.45,0,0,1,344.43,344.5,171.45,171.45,0,0,1,493,430.21Z"/><path class="cls-3" d="M195.79,601.71a171.44,171.44,0,0,1,.07-171.42,171.42,171.42,0,0,1,.08,171.42,171.43,171.43,0,0,1,148.49-85.65h0a171.45,171.45,0,0,1-148.57-85.77A171.43,171.43,0,0,1,47.52,516.05h0A171.44,171.44,0,0,1,195.79,601.71Z"/><path class="cls-3" d="M641.57,172.94A171.43,171.43,0,0,1,493.08,87.29,171.44,171.44,0,0,1,493,258.71a171.46,171.46,0,0,1-.14-171.29A171.45,171.45,0,0,1,344.43,173,171.43,171.43,0,0,1,493,258.72,171.43,171.43,0,0,1,641.57,173a171.56,171.56,0,0,1-297.14,0,171.55,171.55,0,0,1-297,.19h0a171.44,171.44,0,0,1-.07,171.29,171.44,171.44,0,0,1,148.53-85.71h0A171.43,171.43,0,0,1,344.43,344.5a171.43,171.43,0,0,1-.16-171.27c.06.09.11.18.16.27.05-.09.1-.18.16-.27a171.43,171.43,0,0,1-.16,171.27A171.43,171.43,0,0,1,493,258.73h0a171.44,171.44,0,0,1,148.53,85.71,171.43,171.43,0,0,1,0-171.48h.1v0h-.09Z"/><path class="cls-3" d="M5.07,393.36A340.61,340.61,0,0,0,42,506.05,171.33,171.33,0,0,1,47.29,344.5h0A170.81,170.81,0,0,1,5.07,393.36"/><path class="cls-3" d="M641.57,344.5h0A171.45,171.45,0,0,1,493,430.27h0A171.43,171.43,0,0,1,344.43,344.5a171.44,171.44,0,0,1,0,171.55h0a171.56,171.56,0,0,1,297-.18,171.45,171.45,0,0,1,.11-171.36,171.42,171.42,0,0,1,.08,171.42c.52-.9,1.07-1.78,1.6-2.68a340.69,340.69,0,0,0,40.84-119.71A172.48,172.48,0,0,1,641.57,344.5Z"/><path class="cls-3" d="M195.79,430.15a171.44,171.44,0,0,1,.07-171.42A171.41,171.41,0,0,1,47.3,344.5h0A171.43,171.43,0,0,1,195.79,430.15Z"/><path class="cls-3" d="M178.4,44.41c-3.62,2-7.22,4.07-10.76,6.21a171.69,171.69,0,0,1,28.22,36.54A172.53,172.53,0,0,1,178.4,44.41Z"/><path class="cls-3" d="M641.57,516.06h.09v0h-.09Z"/><path class="cls-3" d="M195.86,87.16A171,171,0,0,1,132.39,75a344.76,344.76,0,0,0-78.46,87.34A171.49,171.49,0,0,1,195.86,87.16Z"/><path class="cls-3" d="M641.57,344.5a172.44,172.44,0,0,1,42.52-49,340.83,340.83,0,0,0-40.75-119.58c-.6-1-1.19-1.95-1.77-2.93A171.42,171.42,0,0,1,641.57,344.5Z"/><path class="cls-3" d="M195.86,258.72A171.43,171.43,0,0,1,344.43,173v0A171.45,171.45,0,0,1,195.86,87.16a171.44,171.44,0,0,1,0,171.55,171.44,171.44,0,0,1,0-171.55A171.46,171.46,0,0,1,47.54,172.93l0,0A171.43,171.43,0,0,1,195.86,258.72Z"/><path class="cls-3" d="M336.46,1.6A341.73,341.73,0,0,0,217.05,26a172.48,172.48,0,0,1-21.19,61.14A171.35,171.35,0,0,1,336.46,1.6"/><path class="cls-3" d="M641.57,344.5a172.5,172.5,0,0,1,45.94,6.31c0-2.1.08-4.2.08-6.31s0-4.2-.08-6.3a172.08,172.08,0,0,1-45.94,6.3Z"/><path class="cls-3" d="M344.59,1.68A171.43,171.43,0,0,1,344.43,173,171.42,171.42,0,0,1,493,87.18h0A171.46,171.46,0,0,1,344.49,1.5"/><path class="cls-3" d="M344.43,516.05h0a171.44,171.44,0,0,1,148.49,85.65A171.44,171.44,0,0,1,493,430.29a171.42,171.42,0,0,1,.08,171.42,171.43,171.43,0,0,1,148.49-85.65h0A171.43,171.43,0,0,1,493,430.28,171.45,171.45,0,0,1,344.43,516.05Z"/><path class="cls-3" d="M493,601.86a171.75,171.75,0,0,1,17.57,42.85c3.63-2,7.22-4.07,10.76-6.21A171.44,171.44,0,0,1,493,601.86Z"/><path class="cls-3" d="M493,258.79a171.44,171.44,0,0,1,0,171.42A171.43,171.43,0,0,1,641.57,344.5h0A171.43,171.43,0,0,1,493,258.79Z"/><path class="cls-3" d="M493,601.83h0a171.41,171.41,0,0,1-148.49-85.65,171.45,171.45,0,0,1,0,171.32h0A171.43,171.43,0,0,1,493,601.83Z"/><path class="cls-3" d="M195.86,258.73a171.42,171.42,0,0,1,.08,171.42A171.43,171.43,0,0,1,344.43,344.5,171.45,171.45,0,0,1,195.86,258.73Z"/><path class="cls-3" d="M195.87,430.27h0A171.42,171.42,0,0,1,47.3,344.5h0a171.41,171.41,0,0,1,.11,171.35h0a171.55,171.55,0,0,1,297,.19h0a171.44,171.44,0,0,1,0-171.55A171.41,171.41,0,0,1,195.87,430.27Z"/><path class="cls-3" d="M641.57,516.06A171.43,171.43,0,0,1,493,601.83h0A171.46,171.46,0,0,1,352.25,687.4a341.72,341.72,0,0,0,119.51-24.26A171,171,0,0,1,493,601.86a170.93,170.93,0,0,1,63.67,12.23,344.66,344.66,0,0,0,83.63-95.73c.43-.77.84-1.54,1.27-2.3Z"/><path class="cls-3" d="M641.61,516.14h0l0-.06A.16.16,0,0,1,641.61,516.14Z"/><path class="cls-3" d="M47.52,173l-.12.18-.11-.18h.23Z"/><path class="cls-3" d="M47.29,516.06q3,5.15,6.3,10c-2.07-3.31-4.1-6.65-6.06-10Z"/><path class="cls-3" d="M344.43,687.63a.57.57,0,0,0-.08-.13c-2.89,0-5.77,0-8.65-.11C338.6,687.53,341.5,687.63,344.43,687.63Z"/><path class="cls-3" d="M47.29,516.05h.23l-.11-.19Z"/><path class="cls-3" d="M42,506.05q2.49,5.08,5.32,10a2,2,0,0,0,.11-.2Q44.61,511,42,506.05Z"/><path class="cls-3" d="M195.79,430.15a.75.75,0,0,0,.07.12h0Z"/><path class="cls-3" d="M195.87,430.27a.75.75,0,0,1,.07-.12l-.08.12Z"/><path class="cls-3" d="M47.29,173q-3,5.16-5.57,10.45c1.84-3.45,3.73-6.88,5.68-10.26Z"/><path class="cls-3" d="M47.26,344.44l0,.06h0Z"/><path class="cls-3" d="M47.33,344.44a.21.21,0,0,1,0,.06h0Z"/><circle class="cls-3" cx="47.29" cy="344.5"/><path class="cls-3" d="M195.79,601.71l.07.12h0Z"/><path class="cls-3" d="M195.86,601.83h0a.75.75,0,0,1,.07-.12Z"/><polygon class="cls-3" points="493 87.17 493 87.17 493 87.17 493 87.17"/><path class="cls-3" d="M344.43,687.6l.06-.1h-.11Z"/><path class="cls-3" d="M344.43,516.06h0a.75.75,0,0,0-.07.12Z"/><path class="cls-3" d="M344.43,172.93c0-.08-.1-.16-.14-.24l.13.24Z"/><path class="cls-3" d="M493,258.73h0l0,.06Z"/><path class="cls-3" d="M493,87.18l-.13.24c.05-.08.1-.16.14-.24Z"/><polygon class="cls-3" points="493.01 87.17 493.01 87.17 493 87.17 493.01 87.17"/><path class="cls-3" d="M344.49,687.5l-.06.1c2.63,0,5.23-.08,7.82-.2-2.54.06-5.1.1-7.66.1Z"/><polygon class="cls-3" points="493 601.83 493 601.84 493 601.83 493 601.83"/><path class="cls-3" d="M493,601.83h0a.75.75,0,0,1,.07-.12Z"/><path class="cls-3" d="M493,430.27h0l0-.06Z"/><path class="cls-3" d="M47.54,172.93c2.06-3.57,4.2-7.1,6.39-10.58-2.25,3.32-4.41,6.75-6.45,10.27l-.17.31Z"/><path class="cls-3" d="M641.58,516.05a.75.75,0,0,1,.07-.12l-.08.12Z"/><path class="cls-3" d="M641.58,172.94l0-.07,0,.07Z"/><path class="cls-3" d="M493,430.21l0,.06h0Z"/><path class="cls-3" d="M492.93,601.71a.75.75,0,0,0,.07.12h0Z"/><path class="cls-3" d="M344.43,516.06l.08.12a.75.75,0,0,1-.07-.12Z"/><path class="cls-3" d="M641.57,344.5l0-.06,0,.06Z"/><path class="cls-3" d="M493,258.79l0-.06h0Z"/><path class="cls-3" d="M493,87.17l.08.12a.75.75,0,0,1-.07-.12Z"/><path class="cls-3" d="M641.57,516.05a1.74,1.74,0,0,0-.11-.18l.11.18Z"/><circle class="cls-4" cx="344.5" cy="344.5" r="45.5"/><path class="cls-2" d="M344.5,302.5a42,42,0,1,1-42,42,42,42,0,0,1,42-42m0-7a49,49,0,1,0,49,49,49,49,0,0,0-49-49Z"/><circle class="cls-4" cx="492.97" cy="258.79" r="45.5"/><path class="cls-2" d="M493,216.79a42,42,0,1,1-42,42,42,42,0,0,1,42-42m0-7a49,49,0,1,0,49,49,49,49,0,0,0-49-49Z"/><circle class="cls-4" cx="492.97" cy="430.21" r="45.5"/><path class="cls-2" d="M493,388.21a42,42,0,1,1-42,42,42,42,0,0,1,42-42m0-7a49,49,0,1,0,49,49,49,49,0,0,0-49-49Z"/><circle class="cls-4" cx="344.51" cy="516.18" r="45.5"/><path class="cls-2" d="M344.51,474.18a42,42,0,1,1-42,42,42,42,0,0,1,42-42m0-7a49,49,0,1,0,49,49,49,49,0,0,0-49-49Z"/><circle class="cls-4" cx="195.86" cy="430.29" r="45.5"/><path class="cls-2" d="M195.86,388.29a42,42,0,1,1-42,42,42,42,0,0,1,42-42m0-7a49,49,0,1,0,49,49,49,49,0,0,0-49-49Z"/><circle class="cls-4" cx="195.86" cy="258.72" r="45.5"/><path class="cls-2" d="M195.86,216.72a42,42,0,1,1-42,42,42,42,0,0,1,42-42m0-7a49,49,0,1,0,49,49,49,49,0,0,0-49-49Z"/><circle class="cls-4" cx="344.27" cy="173.23" r="45.5"/><path class="cls-2" d="M344.27,131.23a42,42,0,1,1-42,42,42,42,0,0,1,42-42m0-7a49,49,0,1,0,49,49,49,49,0,0,0-49-49Z"/></g></g></svg>