<?xml version="1.0" encoding="UTF-8" standalone="no"?>
<!-- Created with Inkscape (http://www.inkscape.org/) -->

<svg
   xmlns:dc="http://purl.org/dc/elements/1.1/"
   xmlns:cc="http://creativecommons.org/ns#"
   xmlns:rdf="http://www.w3.org/1999/02/22-rdf-syntax-ns#"
   xmlns:svg="http://www.w3.org/2000/svg"
   xmlns="http://www.w3.org/2000/svg"
   xmlns:sodipodi="http://sodipodi.sourceforge.net/DTD/sodipodi-0.dtd"
   xmlns:inkscape="http://www.inkscape.org/namespaces/inkscape"
   width="100.38661"
   height="99.937866"
   viewBox="0 0 100.38661 99.937866"
   version="1.1"
   id="SVGRoot"
   inkscape:version="0.92.4 (5da689c313, 2019-01-14)"
   sodipodi:docname="lifeseed_bold_white.svg"
   inkscape:export-filename="F:\greenarmy\symbol\seed of life\inkscape\lifeseed_bold2.png"
   inkscape:export-xdpi="343"
   inkscape:export-ydpi="343">
  <defs
     id="defs138">
    <filter
       inkscape:collect="always"
       style="color-interpolation-filters:sRGB"
       id="filter1248"
       x="-0.011972536"
       width="1.0239451"
       y="-0.01202759"
       height="1.0240552">
      <feGaussianBlur
         inkscape:collect="always"
         stdDeviation="0.48907343"
         id="feGaussianBlur1250" />
    </filter>
    <filter
       inkscape:collect="always"
       style="color-interpolation-filters:sRGB"
       id="filter902"
       x="-0.023945073"
       width="1.0478901"
       y="-0.02405518"
       height="1.0481104">
      <feGaussianBlur
         inkscape:collect="always"
         stdDeviation="0.97814685"
         id="feGaussianBlur904" />
    </filter>
  </defs>
  <sodipodi:namedview
     id="base"
     pagecolor="#ffffff"
     bordercolor="#666666"
     borderopacity="1.0"
     inkscape:pageopacity="0.0"
     inkscape:pageshadow="2"
     inkscape:zoom="7.352366"
     inkscape:cx="54.141643"
     inkscape:cy="49.71414"
     inkscape:document-units="px"
     inkscape:current-layer="g850"
     showgrid="false"
     inkscape:window-width="1920"
     inkscape:window-height="1027"
     inkscape:window-x="-8"
     inkscape:window-y="-8"
     inkscape:window-maximized="1"
     inkscape:snap-smooth-nodes="true"
     inkscape:snap-intersection-paths="true"
     showguides="false"
     inkscape:snap-grids="true"
     objecttolerance="20"
     inkscape:snap-path-clip="true"
     inkscape:snap-path-mask="true"
     inkscape:snap-perpendicular="true"
     inkscape:snap-tangential="true">
    <inkscape:grid
       type="xygrid"
       id="grid153"
       originx="-74.857471"
       originy="-76.493717" />
  </sodipodi:namedview>
  <metadata
     id="metadata141">
    <rdf:RDF>
      <cc:Work
         rdf:about="">
        <dc:format>image/svg+xml</dc:format>
        <dc:type
           rdf:resource="http://purl.org/dc/dcmitype/StillImage" />
        <dc:title />
      </cc:Work>
    </rdf:RDF>
  </metadata>
  <g
     inkscape:label="Layer 1"
     inkscape:groupmode="layer"
     id="layer1"
     transform="translate(-74.857473,-166.56841)">
    <g
       id="g850">
      <circle
         style="fill:#ffffff;fill-opacity:1;stroke:#000000;stroke-width:0.69999999;stroke-miterlimit:4;stroke-dasharray:none;stroke-opacity:0"
         id="path842"
         cx="124.65629"
         cy="216.54893"
         r="49.599998" />
      <g
         style="fill:none;fill-opacity:1;stroke:#ffffff;stroke-opacity:1;filter:url(#filter902)"
         transform="translate(58,-2)"
         id="g836">
        <path
           inkscape:connector-curvature="0"
           style="fill:none;fill-opacity:1;stroke:#ffffff;stroke-width:0.26456693;stroke-miterlimit:4;stroke-dasharray:none;stroke-dashoffset:0;stroke-opacity:1"
           d="m 67.041016,169.74219 a 49.051804,48.795193 0 0 0 -0.158204,0.006 24.466154,24.533893 45.039603 0 0 0.0625,24.29883 24.466154,24.533893 45.039603 0 0 0.0957,-24.30469 z m 0.05469,0.002 a 24.5,24.5 0 0 0 21.056641,12.08008 24.5,24.5 0 0 0 -17.263672,-11.89063 49.051804,48.795193 0 0 0 -3.792969,-0.18945 z m 21.056641,12.08008 a 24.5,24.5 0 0 0 -21.164063,12.24805 24.5,24.5 0 0 0 0.0059,0 24.5,24.5 0 0 0 -0.0059,0.01 24.5,24.5 0 0 0 21.164063,-12.24805 24.5,24.5 0 0 0 -0.0059,0 24.5,24.5 0 0 0 0.0059,-0.01 z m -21.164063,12.25781 a 24.5,24.5 0 0 0 20.976563,12.23828 24.5,24.5 0 0 0 -20.958985,12.15039 24.533893,24.466154 44.960397 0 0 3.001953,-15.10351 24.466154,24.533893 45.039603 0 0 -0.01758,-0.13477 24.533893,24.466154 44.960397 0 0 -0.371093,-2.14062 24.466154,24.533893 45.039603 0 0 -0.101563,-0.44336 24.533893,24.466154 44.960397 0 0 -0.505859,-1.80664 24.466154,24.533893 45.039603 0 0 -0.228516,-0.67188 24.533893,24.466154 44.960397 0 0 -0.59375,-1.52344 24.466154,24.533893 45.039603 0 0 -0.378906,-0.83203 24.533893,24.466154 44.960397 0 0 -0.865235,-1.70703 24.533893,24.466154 44.960397 0 0 -0.0039,0.006 24.466154,24.533893 45.039603 0 0 -0.01563,-0.0312 24.466154,24.533893 45.039603 0 0 -1.085937,2.1875 24.533893,24.466154 44.960397 0 0 -0.01367,0.0293 24.466154,24.533893 45.039603 0 0 -0.876953,2.24414 24.533893,24.466154 44.960397 0 0 -0.01367,0.0391 24.466154,24.533893 45.039603 0 0 1.972656,19.95313 24.466154,24.533893 45.039603 0 0 0.01953,-0.0352 24.533893,24.466154 44.960397 0 0 0.02344,0.043 24.5,24.5 0 0 0 -0.03516,-0.002 24.5,24.5 0 0 0 0.0059,0.0117 24.466154,24.533893 45.039603 0 0 -0.867187,1.71289 24.533893,24.466154 44.960397 0 0 -0.421876,0.92579 24.533893,24.466154 44.960397 0 0 -0.0059,0.0117 24.466154,24.533893 45.039603 0 0 -0.5,1.28126 24.533893,24.466154 44.960397 0 0 -0.351562,1.03515 24.466154,24.533893 45.039603 0 0 -0.34961,1.25195 24.533893,24.466154 44.960397 0 0 -0.265625,1.14258 24.466154,24.533893 45.039603 0 0 -0.216797,1.25196 24.533893,24.466154 44.960397 0 0 -0.15039,1.16992 24.466154,24.533893 45.039603 0 0 -0.08984,1.25 24.533893,24.466154 44.960397 0 0 -0.04883,0.67773 24.533893,24.466154 44.960397 0 0 0.01563,0.54688 24.466154,24.533893 45.039603 0 0 0.0332,1.19922 24.533893,24.466154 44.960397 0 0 0.08984,1.24804 24.466154,24.533893 45.039603 0 0 0.15039,1.16992 24.533893,24.466154 44.960397 0 0 0.216797,1.25196 24.466154,24.533893 45.039603 0 0 0.267578,1.14648 24.533893,24.466154 44.960397 0 0 0.345704,1.24024 24.533893,24.466154 44.960397 0 0 0.002,0.004 24.466154,24.533893 45.039603 0 0 0.357421,1.05469 24.533893,24.466154 44.960397 0 0 0.494141,1.26562 24.533893,24.466154 44.960397 0 0 0.002,0.006 24.466154,24.533893 45.039603 0 0 0.431641,0.94532 24.533893,24.466154 44.960397 0 0 0.839844,1.6582 24.5,24.5 0 0 0 -0.01563,0.002 24.5,24.5 0 0 0 -5.388672,-6.42968 24.5,24.5 0 0 0 -1.927735,-1.47266 24.5,24.5 0 0 0 -0.0078,-0.006 24.5,24.5 0 0 0 -13.453125,-4.29687 24.5,24.5 0 0 0 2.0625,-0.10743 24.5,24.5 0 0 0 18.166016,-11.21289 24.5,24.5 0 0 0 0.572265,-0.9414 24.5,24.5 0 0 0 -0.0332,0.002 24.5,24.5 0 0 0 -20.962891,-12.21484 24.5,24.5 0 0 0 21.013672,-12.24024 24.5,24.5 0 0 0 -21.154297,12.23242 24.5,24.5 0 0 0 -0.01563,0 24.5,24.5 0 0 0 -0.01172,-0.0195 24.533893,24.466154 44.960397 0 0 -0.01367,-24.41211 24.5,24.5 0 0 0 0.0332,-0.0547 24.5,24.5 0 0 0 0.0039,0.006 24.5,24.5 0 0 0 -0.0059,0 24.5,24.5 0 0 0 21.164062,12.24805 24.5,24.5 0 0 0 -0.0059,-0.01 24.5,24.5 0 0 0 0.0059,0 24.5,24.5 0 0 0 -21.160156,-12.24805 24.5,24.5 0 0 0 21.054687,-12.07422 49.051804,48.795193 0 0 0 -3.871093,0.18945 24.5,24.5 0 0 0 -17.072266,11.69532 24.533893,24.466154 44.960397 0 0 2.855469,-8.33204 49.051804,48.795193 0 0 0 -5.402344,2.58789 24.466154,24.533893 45.039603 0 0 2.082031,5.31055 24.5,24.5 0 0 0 -3.566406,-4.46289 49.051804,48.795193 0 0 0 -5,3.375 24.5,24.5 0 0 0 8.851563,1.71094 24.5,24.5 0 0 0 -0.01367,-0.0234 24.5,24.5 0 0 0 0.08984,0.006 24.5,24.5 0 0 0 -0.01172,0.0176 24.5,24.5 0 0 0 -2.484375,0.13476 24.5,24.5 0 0 0 -17.22461,9.86329 49.051804,48.795193 0 0 0 -1.388672,2.25195 24.5,24.5 0 0 0 2.384766,-0.12891 24.5,24.5 0 0 0 18.521484,-11.79883 24.533893,24.466154 44.960397 0 0 -0.01758,23.83399 24.5,24.5 0 0 0 -20.894531,-11.89844 49.051804,48.795193 0 0 0 -0.02734,0.0449 24.5,24.5 0 0 0 20.355469,12.16211 24.5,24.5 0 0 0 -20.021484,11.50782 24.533893,24.466154 44.960397 0 0 1.58789,-19.16797 24.466154,24.533893 45.039603 0 0 -0.111328,-0.33008 24.533893,24.466154 44.960397 0 0 -0.68164,-1.74805 24.466154,24.533893 45.039603 0 0 -0.347657,-0.76367 24.533893,24.466154 44.960397 0 0 -0.814453,-1.60547 49.051804,48.795193 0 0 0 -1.664062,3.16992 24.466154,24.533893 45.039603 0 0 0.978515,19.99024 24.5,24.5 0 0 0 -5.34375,-5.80078 49.051804,48.795193 0 0 0 -0.521484,6.05468 24.5,24.5 0 0 0 4.146484,0.78516 24.5,24.5 0 0 0 0.0078,0.002 24.5,24.5 0 0 0 2.271484,0.11719 24.5,24.5 0 0 0 0.0293,0.002 24.466154,24.533893 45.039603 0 0 -0.865234,1.70703 24.533893,24.466154 44.960397 0 0 -0.419922,0.92188 24.466154,24.533893 45.039603 0 0 -0.505859,1.29297 24.533893,24.466154 44.960397 0 0 -0.34961,1.0332 24.466154,24.533893 45.039603 0 0 -0.351562,1.25977 24.533893,24.466154 44.960397 0 0 -0.265625,1.13867 24.466154,24.533893 45.039603 0 0 -0.216797,1.25195 24.533893,24.466154 44.960397 0 0 -0.150391,1.16992 24.466154,24.533893 45.039603 0 0 -0.08984,1.24805 24.533893,24.466154 44.960397 0 0 -0.0332,1.21289 24.466154,24.533893 45.039603 0 0 0.0332,1.20899 24.533893,24.466154 44.960397 0 0 0.08984,1.2539 24.466154,24.533893 45.039603 0 0 0.150391,1.16016 24.533893,24.466154 44.960397 0 0 0.21875,1.26562 24.466154,24.533893 45.039603 0 0 0.261718,1.12891 24.533893,24.466154 44.960397 0 0 0.353516,1.26172 24.466154,24.533893 45.039603 0 0 0.34961,1.0332 24.533893,24.466154 44.960397 0 0 0.505859,1.29297 24.466154,24.533893 45.039603 0 0 0.251953,0.55273 49.051804,48.795193 0 0 0 1.119141,1.93946 24.533893,24.466154 44.960397 0 0 1.451171,-3.09375 24.466154,24.533893 45.039603 0 0 0.002,-0.004 24.533893,24.466154 44.960397 0 0 0.746093,-2.19726 24.466154,24.533893 45.039603 0 0 0.07617,-0.27149 24.533893,24.466154 44.960397 0 0 0.462891,-1.99414 24.466154,24.533893 45.039603 0 0 0.0957,-0.55859 24.533893,24.466154 44.960397 0 0 0.21875,-1.69141 24.466154,24.533893 45.039603 0 0 0.07031,-0.9707 24.533893,24.466154 44.960397 0 0 0.03711,-1.31641 24.466154,24.533893 45.039603 0 0 -0.03711,-1.31836 24.533893,24.466154 44.960397 0 0 -0.07031,-0.9707 24.466154,24.533893 45.039603 0 0 -0.21875,-1.69727 24.533893,24.466154 44.960397 0 0 -0.0957,-0.54492 24.466154,24.533893 45.039603 0 0 -0.462891,-2.00391 24.533893,24.466154 44.960397 0 0 -0.07617,-0.26953 24.466154,24.533893 45.039603 0 0 -0.748047,-2.20117 24.533893,24.466154 44.960397 0 0 -0.002,-0.004 24.466154,24.533893 45.039603 0 0 -1.408203,-3.00782 24.5,24.5 0 0 0 20.4375,12.0293 24.5,24.5 0 0 0 -20.466797,12.10938 49.051804,48.795193 0 0 0 1.697266,2.76367 24.5,24.5 0 0 0 19.382813,9.625 24.5,24.5 0 0 0 -0.01563,-0.0274 24.5,24.5 0 0 0 0.02734,0.002 24.533893,24.466154 44.960397 0 0 0.02539,0.0469 24.533893,24.466154 44.960397 0 0 2.287109,-5.47461 24.466154,24.533893 45.039603 0 0 0.06055,-0.21484 24.533893,24.466154 44.960397 0 0 0.466797,-2.01172 24.466154,24.533893 45.039603 0 0 0.09961,-0.57422 24.533893,24.466154 44.960397 0 0 0.220703,-1.71484 24.466154,24.533893 45.039603 0 0 0.06641,-0.90625 24.533893,24.466154 44.960397 0 0 0.03711,-1.35352 24.466154,24.533893 45.039603 0 0 -0.03711,-1.35156 24.533893,24.466154 44.960397 0 0 -0.06641,-0.9082 24.466154,24.533893 45.039603 0 0 -0.220703,-1.71485 24.533893,24.466154 44.960397 0 0 -0.09961,-0.57422 24.466154,24.533893 45.039603 0 0 -0.466797,-2.00586 24.533893,24.466154 44.960397 0 0 -0.0625,-0.22461 24.466154,24.533893 45.039603 0 0 -2.261719,-5.42382 24.5,24.5 0 0 0 0.0078,0 24.5,24.5 0 0 0 7.324219,7.90625 24.5,24.5 0 0 0 13.46289,4.29687 24.5,24.5 0 0 0 -20.791015,12.22852 24.5,24.5 0 0 0 0.002,0 24.5,24.5 0 0 0 -0.02148,0.0351 24.5,24.5 0 0 0 0.0332,-0.002 24.5,24.5 0 0 0 16.994141,11.83594 49.051804,48.795193 0 0 0 4.035156,0.20117 24.5,24.5 0 0 0 -20.810547,-12.04883 24.5,24.5 0 0 0 20.910157,-12.23242 24.5,24.5 0 0 0 0.02148,0.002 24.5,24.5 0 0 0 -0.01172,-0.0176 24.5,24.5 0 0 0 0.0078,-0.0137 24.533893,24.466154 44.960397 0 0 0.01758,0.0312 24.5,24.5 0 0 0 -0.0059,0.008 24.5,24.5 0 0 0 0.02148,-0.002 24.5,24.5 0 0 0 7.337891,7.91406 24.5,24.5 0 0 0 13.638671,4.3125 24.5,24.5 0 0 0 -20.886718,12.0586 49.051804,48.795193 0 0 0 0.02539,0.002 49.051804,48.795193 0 0 0 3.353516,-0.11719 24.5,24.5 0 0 0 17.664062,-11.93359 24.5,24.5 0 0 0 0.02539,0 24.466154,24.533893 45.039603 0 0 -0.849609,1.67969 24.533893,24.466154 44.960397 0 0 -0.421875,0.92578 24.466154,24.533893 45.039603 0 0 -0.50586,1.29297 24.533893,24.466154 44.960397 0 0 -0.351562,1.03515 24.466154,24.533893 45.039603 0 0 -0.349609,1.25196 24.533893,24.466154 44.960397 0 0 -0.265626,1.14258 24.466154,24.533893 45.039603 0 0 -0.216796,1.25195 24.533893,24.466154 44.960397 0 0 -0.002,0.0176 49.051804,48.795193 0 0 0 5.417969,-2.56836 24.466154,24.533893 45.039603 0 0 -0.08203,-0.35743 24.533893,24.466154 44.960397 0 0 -0.07227,-0.25976 24.466154,24.533893 45.039603 0 0 -0.75,-2.20508 24.533893,24.466154 44.960397 0 0 -0.002,-0.004 24.466154,24.533893 45.039603 0 0 -1.365234,-2.92383 24.5,24.5 0 0 0 3.84375,4.85351 49.051804,48.795193 0 0 0 5.03125,-3.37695 24.5,24.5 0 0 0 -4.191406,-1.28125 24.5,24.5 0 0 0 -4.835938,-0.49609 24.533893,24.466154 44.960397 0 0 1.519531,-3.22852 24.466154,24.533893 45.039603 0 0 0.002,-0.004 24.533893,24.466154 44.960397 0 0 0.748046,-2.20117 24.466154,24.533893 45.039603 0 0 0.07227,-0.25976 24.533893,24.466154 44.960397 0 0 0.464844,-2.00782 24.466154,24.533893 45.039603 0 0 0.0957,-0.54492 24.533893,24.466154 44.960397 0 0 0.21875,-1.69726 24.466154,24.533893 45.039603 0 0 0.07031,-0.97266 24.533893,24.466154 44.960397 0 0 0.03711,-1.31641 24.466154,24.533893 45.039603 0 0 -0.03711,-1.31836 24.533893,24.466154 44.960397 0 0 -0.07031,-0.9707 24.466154,24.533893 45.039603 0 0 -0.21875,-1.69726 24.533893,24.466154 44.960397 0 0 -0.0957,-0.54493 24.466154,24.533893 45.039603 0 0 -0.464844,-2.01171 24.533893,24.466154 44.960397 0 0 -0.07031,-0.25 24.466154,24.533893 45.039603 0 0 -2.28125,-5.45704 24.5,24.5 0 0 0 -0.02344,0.002 24.5,24.5 0 0 0 -0.548828,-0.9043 24.5,24.5 0 0 0 -4.857422,-5.53906 24.5,24.5 0 0 0 -0.273438,-0.20703 24.5,24.5 0 0 0 -1.65625,-1.26368 24.5,24.5 0 0 1 -0.002,-0.002 24.5,24.5 0 0 0 -13.636718,-4.31055 24.5,24.5 0 0 0 20.986328,-12.2207 24.466154,24.533893 45.039603 0 0 -0.0059,24.43164 24.466154,24.533893 45.039603 0 0 0.02539,-24.43555 24.5,24.5 0 0 0 0.02734,0.002 24.5,24.5 0 0 0 -21.164063,-12.24805 z M 85.21875,173.25391 a 24.466154,24.533893 45.039603 0 0 0.01563,0.12695 24.533893,24.466154 44.960397 0 0 0.177734,1.01758 24.466154,24.533893 45.039603 0 0 0.302735,1.30664 24.533893,24.466154 44.960397 0 0 0.308594,1.10937 24.466154,24.533893 45.039603 0 0 0.404296,1.18946 24.533893,24.466154 44.960397 0 0 0.455078,1.16211 24.466154,24.533893 45.039603 0 0 0.447266,0.98046 24.533893,24.466154 44.960397 0 0 0.857422,1.69336 24.5,24.5 0 0 0 -0.0078,0.0117 24.5,24.5 0 0 0 0.01367,0 24.533893,24.466154 44.960397 0 0 0.0039,0.008 24.533893,24.466154 44.960397 0 0 0.0039,-0.01 24.5,24.5 0 0 0 0.0059,0 24.5,24.5 0 0 0 5.400391,6.43555 24.5,24.5 0 0 1 0.002,0.002 24.5,24.5 0 0 0 0.628906,0.48047 24.5,24.5 0 0 0 1.28711,0.98242 24.5,24.5 0 0 0 13.667968,4.32227 24.5,24.5 0 0 0 -20.953125,12.14062 24.533893,24.466154 44.960397 0 0 -0.06641,-24.35351 24.533893,24.466154 44.960397 0 0 0.01172,24.44531 24.5,24.5 0 0 0 -0.0059,0.008 24.5,24.5 0 0 0 20.960935,12.23828 24.5,24.5 0 0 0 -20.996092,12.23828 24.5,24.5 0 0 0 0.05273,-0.002 24.5,24.5 0 0 0 -0.0078,0.0137 24.5,24.5 0 0 0 -0.04492,-0.002 24.5,24.5 0 0 0 20.787112,12.22851 24.5,24.5 0 0 0 -20.787112,12.22852 24.5,24.5 0 0 0 21.140632,-12.21094 24.5,24.5 0 0 1 0.002,0 24.466154,24.533893 45.039603 0 0 -0.60547,1.1875 49.051804,48.795193 0 0 0 0.67383,-1.09375 24.466154,24.533893 45.039603 0 0 -0.0488,-0.0918 24.5,24.5 0 0 1 0.002,0 24.5,24.5 0 0 0 -0.0117,-0.0195 24.5,24.5 0 0 0 0.0117,-0.0195 24.5,24.5 0 0 0 -0.0234,0.002 24.5,24.5 0 0 0 -20.953132,-12.20118 24.5,24.5 0 0 0 21.011722,-12.24023 24.5,24.5 0 0 0 -0.0527,0.002 24.5,24.5 0 0 0 0.008,-0.0117 24.5,24.5 0 0 0 0.0449,0.002 24.5,24.5 0 0 0 -21.1543,-12.24805 24.5,24.5 0 0 0 21.14453,-12.23242 24.5,24.5 0 0 0 0.0469,0.002 24.5,24.5 0 0 0 -5.42969,-6.48047 24.5,24.5 0 0 0 -1.28125,-0.97851 24.5,24.5 0 0 0 -0.6289,-0.48047 24.5,24.5 0 0 0 -13.427742,-4.31446 24.5,24.5 0 0 0 8.542969,-1.74218 49.051804,48.795193 0 0 0 -4.972656,-3.38477 24.5,24.5 0 0 0 -3.873047,4.9375 24.533893,24.466154 44.960397 0 0 2.318359,-5.88672 49.051804,48.795193 0 0 0 -5.410156,-2.49804 z m 24.16211,20.82812 a 24.533893,24.466154 44.960397 0 0 0.0215,-0.0449 49.051804,48.795193 0 0 0 -0.35351,-0.61328 24.533893,24.466154 44.960397 0 0 0.33203,0.6582 z m 0,0 a 24.466154,24.533893 45.039603 0 0 -0.01,0.0176 24.533893,24.466154 44.960397 0 0 -0.006,-0.01 24.533893,24.466154 44.960397 0 0 -0.16015,0.3125 24.466154,24.533893 45.039603 0 0 -0.54297,1.0625 24.533893,24.466154 44.960397 0 0 -0.68555,1.50586 24.466154,24.533893 45.039603 0 0 -0.27344,0.70313 24.533893,24.466154 44.960397 0 0 -0.54101,1.58984 24.466154,24.533893 45.039603 0 0 -0.2207,0.79102 24.533893,24.466154 44.960397 0 0 -0.35352,1.51953 24.466154,24.533893 45.039603 0 0 -0.16406,0.94531 24.533893,24.466154 44.960397 0 0 -0.18555,1.43555 24.466154,24.533893 45.039603 0 0 -0.0762,1.06836 24.533893,24.466154 44.960397 0 0 -0.0371,1.28906 24.466154,24.533893 45.039603 0 0 0.0371,1.28906 24.533893,24.466154 44.960397 0 0 0.0762,1.06446 24.466154,24.533893 45.039603 0 0 0.18555,1.43945 24.533893,24.466154 44.960397 0 0 0.16406,0.94531 24.466154,24.533893 45.039603 0 0 0.35352,1.51563 24.533893,24.466154 44.960397 0 0 0.22265,0.80078 24.466154,24.533893 45.039603 0 0 0.53321,1.56836 24.533893,24.466154 44.960397 0 0 0.28515,0.72851 24.466154,24.533893 45.039603 0 0 0.68164,1.49805 24.533893,24.466154 44.960397 0 0 0.5293,1.03516 24.466154,24.533893 45.039603 0 0 0.17187,0.33789 24.466154,24.533893 45.039603 0 0 0.006,-0.0117 24.533893,24.466154 44.960397 0 0 0.01,0.0176 24.533893,24.466154 44.960397 0 0 0.29102,-0.56836 24.466154,24.533893 45.039603 0 0 0.33203,-0.65235 24.533893,24.466154 44.960397 0 0 0.80468,-1.76172 24.466154,24.533893 45.039603 0 0 0.19922,-0.50976 24.533893,24.466154 44.960397 0 0 0.59766,-1.75781 24.466154,24.533893 45.039603 0 0 0.17969,-0.64649 24.533893,24.466154 44.960397 0 0 0.38281,-1.64258 24.466154,24.533893 45.039603 0 0 0.14844,-0.85156 24.533893,24.466154 44.960397 0 0 0.1914,-1.49805 24.466154,24.533893 45.039603 0 0 0.0762,-1.0664 24.533893,24.466154 44.960397 0 0 0.0352,-1.24805 24.466154,24.533893 45.039603 0 0 -0.0371,-1.34375 24.533893,24.466154 44.960397 0 0 -0.0723,-1.01172 24.466154,24.533893 45.039603 0 0 -0.19532,-1.50976 24.533893,24.466154 44.960397 0 0 -0.14648,-0.85157 24.466154,24.533893 45.039603 0 0 -0.38281,-1.64257 24.533893,24.466154 44.960397 0 0 -0.17969,-0.64649 24.466154,24.533893 45.039603 0 0 -0.59766,-1.75781 24.533893,24.466154 44.960397 0 0 -0.19922,-0.50977 24.466154,24.533893 45.039603 0 0 -0.80468,-1.76172 24.533893,24.466154 44.960397 0 0 -0.32618,-0.64062 24.466154,24.533893 45.039603 0 0 -0.29687,-0.58008 z M 45.75,181.73633 a 24.533893,24.466154 44.960397 0 0 0.03125,0.0566 24.5,24.5 0 0 0 -0.0059,0.008 24.5,24.5 0 0 0 -0.03125,-0.0527 24.466154,24.533893 45.039603 0 0 0.0059,-0.0117 z m 63.66016,12.31445 a 24.5,24.5 0 0 0 -0.002,0.004 24.5,24.5 0 0 0 0.002,0 24.5,24.5 0 0 0 -0.0215,0.0352 24.5,24.5 0 0 0 0.0332,-0.002 24.5,24.5 0 0 0 0.0898,0.13867 49.051804,48.795193 0 0 0 -0.10156,-0.17578 z m -63.751957,12.27344 a 24.5,24.5 0 0 0 0.04687,0.002 24.466154,24.533893 45.039603 0 0 -0.02344,24.39258 24.5,24.5 0 0 0 -0.0039,0 24.5,24.5 0 0 0 -21.078125,-12.20508 24.533893,24.466154 44.960397 0 0 0.002,-0.006 24.5,24.5 0 0 0 0.04492,0.002 24.5,24.5 0 0 0 -0.0098,-0.0156 24.5,24.5 0 0 0 21.021484,-12.16992 z m 0.07031,0.004 a 24.5,24.5 0 0 0 0.0059,0 24.5,24.5 0 0 0 18.708984,12.10352 24.5,24.5 0 0 0 2.212891,0.11719 24.5,24.5 0 0 0 -20.908203,12.23047 24.5,24.5 0 0 0 -0.02344,-0.002 24.5,24.5 0 0 0 0.01172,0.0195 24.5,24.5 0 0 0 -0.0039,0.006 24.466154,24.533893 45.039603 0 0 -0.01563,-0.0332 24.466154,24.533893 45.039603 0 0 -0.880859,1.74219 24.533893,24.466154 44.960397 0 0 -0.410157,0.90039 24.466154,24.533893 45.039603 0 0 -0.496093,1.26562 24.533893,24.466154 44.960397 0 0 -0.369141,1.08985 24.466154,24.533893 45.039603 0 0 -0.339844,1.21484 24.533893,24.466154 44.960397 0 0 -0.269531,1.16211 24.466154,24.533893 45.039603 0 0 -0.210938,1.21289 24.533893,24.466154 44.960397 0 0 -0.158203,1.23633 24.466154,24.533893 45.039603 0 0 -0.08594,1.18359 24.533893,24.466154 44.960397 0 0 -0.03516,1.24219 24.466154,24.533893 45.039603 0 0 0.03516,1.24414 24.533893,24.466154 44.960397 0 0 0.08594,1.18164 24.466154,24.533893 45.039603 0 0 0.158203,1.23633 24.533893,24.466154 44.960397 0 0 0.210938,1.21289 24.466154,24.533893 45.039603 0 0 0.271484,1.16602 24.533893,24.466154 44.960397 0 0 0.335938,1.20312 24.466154,24.533893 45.039603 0 0 0.376953,1.11133 24.533893,24.466154 44.960397 0 0 0.486328,1.24414 24.466154,24.533893 45.039603 0 0 0.414063,0.91211 24.533893,24.466154 44.960397 0 0 0.763671,1.52539 24.5,24.5 0 0 0 -20.453125,-12.05078 24.5,24.5 0 0 0 20.533204,-12.21484 24.5,24.5 0 0 0 -0.02344,0.002 24.5,24.5 0 0 0 0.0059,-0.01 24.5,24.5 0 0 0 0.01758,0 24.5,24.5 0 0 0 -0.0098,-0.0156 24.5,24.5 0 0 0 0.0078,-0.0117 24.5,24.5 0 0 0 0.02344,0.002 24.466154,24.533893 45.039603 0 0 0.02734,-24.42969 z m 69.820317,5.20899 a 24.5,24.5 0 0 0 -6.14063,7.02344 24.5,24.5 0 0 0 6.66211,-0.96094 49.051804,48.795193 0 0 0 -0.52148,-6.0625 z m -91.031255,6.9668 a 24.5,24.5 0 0 0 0.02734,0.002 24.533893,24.466154 44.960397 0 0 0.002,0.004 24.5,24.5 0 0 0 -0.0098,0 24.5,24.5 0 0 0 0.01563,0.0273 24.5,24.5 0 0 0 -0.01953,-0.002 24.466154,24.533893 45.039603 0 0 -0.01563,-0.0312 z m -0.04492,0.006 a 24.5,24.5 0 0 0 -6.441406,0.9082 49.051804,48.795193 0 0 0 0.503906,5.94531 24.5,24.5 0 0 0 5.9375,-6.85351 z m 84.935545,0.0586 a 24.5,24.5 0 0 0 0.0156,0.0273 24.5,24.5 0 0 0 -0.0352,-0.002 24.5,24.5 0 0 0 6.13281,7.0332 49.051804,48.795193 0 0 0 0.53321,-6.09765 24.5,24.5 0 0 0 -6.64649,-0.96094 z m -0.043,0.0254 a 24.533893,24.466154 44.960397 0 0 0.0156,24.45313 24.533893,24.466154 44.960397 0 0 -0.0156,-24.45313 z m -42.406247,0.0176 a 24.5,24.5 0 0 0 7.302735,7.87305 24.5,24.5 0 0 0 11.410156,4.20507 24.5,24.5 0 0 0 2.072266,0.10743 24.5,24.5 0 0 0 -11.394532,3.01953 24.5,24.5 0 0 0 -0.0098,0.006 24.5,24.5 0 0 0 -2.046875,1.26367 24.5,24.5 0 0 0 -7.310547,7.85156 24.533893,24.466154 44.960397 0 0 1.05664,-2.06836 24.533893,24.466154 44.960397 0 0 1.167969,-3.2793 24.466154,24.533893 45.039603 0 0 0.07031,-0.25 24.533893,24.466154 44.960397 0 0 0.464844,-2.01172 24.466154,24.533893 45.039603 0 0 0.0957,-0.54492 24.533893,24.466154 44.960397 0 0 0.21875,-1.69726 24.466154,24.533893 45.039603 0 0 0.07031,-0.97071 24.533893,24.466154 44.960397 0 0 0.03711,-1.31835 24.466154,24.533893 45.039603 0 0 -0.03711,-1.31641 24.533893,24.466154 44.960397 0 0 -0.07031,-0.97266 24.466154,24.533893 45.039603 0 0 -0.21875,-1.69726 24.533893,24.466154 44.960397 0 0 -0.0957,-0.54493 24.466154,24.533893 45.039603 0 0 -0.464844,-2.00781 24.533893,24.466154 44.960397 0 0 -0.07227,-0.25976 24.466154,24.533893 45.039603 0 0 -0.75,-2.20508 24.533893,24.466154 44.960397 0 0 -0.002,-0.004 24.466154,24.533893 45.039603 0 0 -1.494141,-3.17773 z m 21.134766,12.20312 a 24.5,24.5 0 0 1 0.002,0 24.466154,24.533893 45.039603 0 0 -0.84375,1.66797 24.533893,24.466154 44.960397 0 0 -0.433594,0.95117 24.466154,24.533893 45.039603 0 0 -0.49414,1.26563 24.533893,24.466154 44.960397 0 0 -0.359375,1.05859 24.466154,24.533893 45.039603 0 0 -0.345703,1.24024 24.533893,24.466154 44.960397 0 0 -0.267579,1.14648 24.466154,24.533893 45.039603 0 0 -0.216796,1.25195 24.533893,24.466154 44.960397 0 0 -0.150391,1.16993 24.466154,24.533893 45.039603 0 0 -0.08984,1.24804 24.533893,24.466154 44.960397 0 0 -0.0332,1.21289 24.466154,24.533893 45.039603 0 0 0.0332,1.21094 24.533893,24.466154 44.960397 0 0 0.08984,1.25 24.466154,24.533893 45.039603 0 0 0.150391,1.16992 24.533893,24.466154 44.960397 0 0 0.216796,1.25196 24.466154,24.533893 45.039603 0 0 0.265626,1.14257 24.533893,24.466154 44.960397 0 0 0.349609,1.25196 24.466154,24.533893 45.039603 0 0 0.351562,1.03515 24.533893,24.466154 44.960397 0 0 0.50586,1.29297 24.466154,24.533893 45.039603 0 0 0.421875,0.92578 24.533893,24.466154 44.960397 0 0 0.861328,1.69922 24.5,24.5 0 0 0 -0.0059,0 24.5,24.5 0 0 0 -5.414062,-6.45508 24.5,24.5 0 0 0 -1.910156,-1.45898 24.5,24.5 0 0 0 -0.0059,-0.004 24.5,24.5 0 0 0 -13.480468,-4.3125 24.5,24.5 0 0 0 11.40039,-3.02539 24.5,24.5 0 0 0 9.402344,-9.1875 z m -21.185547,12.2461 a 24.533893,24.466154 44.960397 0 0 -0.08594,24.25976 49.051804,48.795193 0 0 0 0.195312,0.01 24.533893,24.466154 44.960397 0 0 -0.109375,-24.26953 z m -21.228515,12.19726 a 24.5,24.5 0 0 0 -8.794922,1.68164 49.051804,48.795193 0 0 0 4.910156,3.35938 24.5,24.5 0 0 0 3.884766,-5.04102 z m 0.02148,0.0254 a 24.533893,24.466154 44.960397 0 0 -2.285156,5.46485 24.466154,24.533893 45.039603 0 0 -0.06445,0.23242 24.533893,24.466154 44.960397 0 0 -0.05469,0.23437 49.051804,48.795193 0 0 0 5.357422,2.52149 24.533893,24.466154 44.960397 0 0 -0.1875,-1.08008 24.466154,24.533893 45.039603 0 0 -0.269531,-1.15625 24.533893,24.466154 44.960397 0 0 -0.339844,-1.22266 24.466154,24.533893 45.039603 0 0 -0.369141,-1.08789 24.533893,24.466154 44.960397 0 0 -0.492187,-1.25781 24.466154,24.533893 45.039603 0 0 -0.423828,-0.92773 24.533893,24.466154 44.960397 0 0 -0.871095,-1.72071 z"
           id="path832" />
        <ellipse
           style="opacity:1;vector-effect:none;fill:none;fill-opacity:1;fill-rule:evenodd;stroke:#ffffff;stroke-width:0.26456693;stroke-linecap:butt;stroke-linejoin:miter;stroke-miterlimit:4;stroke-dasharray:none;stroke-dashoffset:0;stroke-opacity:1"
           id="ellipse834"
           cx="66.951172"
           cy="218.53615"
           rx="48.919922"
           ry="48.790695" />
      </g>
      <g
         style="fill:none;filter:url(#filter1248)"
         transform="translate(58,-2)"
         id="g1206">
        <path
           inkscape:connector-curvature="0"
           style="fill:none;fill-opacity:0.19215686;stroke:#003100;stroke-width:0.26456693;stroke-miterlimit:4;stroke-dasharray:none;stroke-dashoffset:0;stroke-opacity:1"
           d="m 67.041016,169.74219 a 49.051804,48.795193 0 0 0 -0.158204,0.006 24.466154,24.533893 45.039603 0 0 0.0625,24.29883 24.466154,24.533893 45.039603 0 0 0.0957,-24.30469 z m 0.05469,0.002 a 24.5,24.5 0 0 0 21.056641,12.08008 24.5,24.5 0 0 0 -17.263672,-11.89063 49.051804,48.795193 0 0 0 -3.792969,-0.18945 z m 21.056641,12.08008 a 24.5,24.5 0 0 0 -21.164063,12.24805 24.5,24.5 0 0 0 0.0059,0 24.5,24.5 0 0 0 -0.0059,0.01 24.5,24.5 0 0 0 21.164063,-12.24805 24.5,24.5 0 0 0 -0.0059,0 24.5,24.5 0 0 0 0.0059,-0.01 z m -21.164063,12.25781 a 24.5,24.5 0 0 0 20.976563,12.23828 24.5,24.5 0 0 0 -20.958985,12.15039 24.533893,24.466154 44.960397 0 0 3.001953,-15.10351 24.466154,24.533893 45.039603 0 0 -0.01758,-0.13477 24.533893,24.466154 44.960397 0 0 -0.371093,-2.14062 24.466154,24.533893 45.039603 0 0 -0.101563,-0.44336 24.533893,24.466154 44.960397 0 0 -0.505859,-1.80664 24.466154,24.533893 45.039603 0 0 -0.228516,-0.67188 24.533893,24.466154 44.960397 0 0 -0.59375,-1.52344 24.466154,24.533893 45.039603 0 0 -0.378906,-0.83203 24.533893,24.466154 44.960397 0 0 -0.865235,-1.70703 24.533893,24.466154 44.960397 0 0 -0.0039,0.006 24.466154,24.533893 45.039603 0 0 -0.01563,-0.0312 24.466154,24.533893 45.039603 0 0 -1.085937,2.1875 24.533893,24.466154 44.960397 0 0 -0.01367,0.0293 24.466154,24.533893 45.039603 0 0 -0.876953,2.24414 24.533893,24.466154 44.960397 0 0 -0.01367,0.0391 24.466154,24.533893 45.039603 0 0 1.972656,19.95313 24.466154,24.533893 45.039603 0 0 0.01953,-0.0352 24.533893,24.466154 44.960397 0 0 0.02344,0.043 24.5,24.5 0 0 0 -0.03516,-0.002 24.5,24.5 0 0 0 0.0059,0.0117 24.466154,24.533893 45.039603 0 0 -0.867187,1.71289 24.533893,24.466154 44.960397 0 0 -0.421876,0.92579 24.533893,24.466154 44.960397 0 0 -0.0059,0.0117 24.466154,24.533893 45.039603 0 0 -0.5,1.28126 24.533893,24.466154 44.960397 0 0 -0.351562,1.03515 24.466154,24.533893 45.039603 0 0 -0.34961,1.25195 24.533893,24.466154 44.960397 0 0 -0.265625,1.14258 24.466154,24.533893 45.039603 0 0 -0.216797,1.25196 24.533893,24.466154 44.960397 0 0 -0.15039,1.16992 24.466154,24.533893 45.039603 0 0 -0.08984,1.25 24.533893,24.466154 44.960397 0 0 -0.04883,0.67773 24.533893,24.466154 44.960397 0 0 0.01563,0.54688 24.466154,24.533893 45.039603 0 0 0.0332,1.19922 24.533893,24.466154 44.960397 0 0 0.08984,1.24804 24.466154,24.533893 45.039603 0 0 0.15039,1.16992 24.533893,24.466154 44.960397 0 0 0.216797,1.25196 24.466154,24.533893 45.039603 0 0 0.267578,1.14648 24.533893,24.466154 44.960397 0 0 0.345704,1.24024 24.533893,24.466154 44.960397 0 0 0.002,0.004 24.466154,24.533893 45.039603 0 0 0.357421,1.05469 24.533893,24.466154 44.960397 0 0 0.494141,1.26562 24.533893,24.466154 44.960397 0 0 0.002,0.006 24.466154,24.533893 45.039603 0 0 0.431641,0.94532 24.533893,24.466154 44.960397 0 0 0.839844,1.6582 24.5,24.5 0 0 0 -0.01563,0.002 24.5,24.5 0 0 0 -5.388672,-6.42968 24.5,24.5 0 0 0 -1.927735,-1.47266 24.5,24.5 0 0 0 -0.0078,-0.006 24.5,24.5 0 0 0 -13.453125,-4.29687 24.5,24.5 0 0 0 2.0625,-0.10743 24.5,24.5 0 0 0 18.166016,-11.21289 24.5,24.5 0 0 0 0.572265,-0.9414 24.5,24.5 0 0 0 -0.0332,0.002 24.5,24.5 0 0 0 -20.962891,-12.21484 24.5,24.5 0 0 0 21.013672,-12.24024 24.5,24.5 0 0 0 -21.154297,12.23242 24.5,24.5 0 0 0 -0.01563,0 24.5,24.5 0 0 0 -0.01172,-0.0195 24.533893,24.466154 44.960397 0 0 -0.01367,-24.41211 24.5,24.5 0 0 0 0.0332,-0.0547 24.5,24.5 0 0 0 0.0039,0.006 24.5,24.5 0 0 0 -0.0059,0 24.5,24.5 0 0 0 21.164062,12.24805 24.5,24.5 0 0 0 -0.0059,-0.01 24.5,24.5 0 0 0 0.0059,0 24.5,24.5 0 0 0 -21.160156,-12.24805 24.5,24.5 0 0 0 21.054687,-12.07422 49.051804,48.795193 0 0 0 -3.871093,0.18945 24.5,24.5 0 0 0 -17.072266,11.69532 24.533893,24.466154 44.960397 0 0 2.855469,-8.33204 49.051804,48.795193 0 0 0 -5.402344,2.58789 24.466154,24.533893 45.039603 0 0 2.082031,5.31055 24.5,24.5 0 0 0 -3.566406,-4.46289 49.051804,48.795193 0 0 0 -5,3.375 24.5,24.5 0 0 0 8.851563,1.71094 24.5,24.5 0 0 0 -0.01367,-0.0234 24.5,24.5 0 0 0 0.08984,0.006 24.5,24.5 0 0 0 -0.01172,0.0176 24.5,24.5 0 0 0 -2.484375,0.13476 24.5,24.5 0 0 0 -17.22461,9.86329 49.051804,48.795193 0 0 0 -1.388672,2.25195 24.5,24.5 0 0 0 2.384766,-0.12891 24.5,24.5 0 0 0 18.521484,-11.79883 24.533893,24.466154 44.960397 0 0 -0.01758,23.83399 24.5,24.5 0 0 0 -20.894531,-11.89844 49.051804,48.795193 0 0 0 -0.02734,0.0449 24.5,24.5 0 0 0 20.355469,12.16211 24.5,24.5 0 0 0 -20.021484,11.50782 24.533893,24.466154 44.960397 0 0 1.58789,-19.16797 24.466154,24.533893 45.039603 0 0 -0.111328,-0.33008 24.533893,24.466154 44.960397 0 0 -0.68164,-1.74805 24.466154,24.533893 45.039603 0 0 -0.347657,-0.76367 24.533893,24.466154 44.960397 0 0 -0.814453,-1.60547 49.051804,48.795193 0 0 0 -1.664062,3.16992 24.466154,24.533893 45.039603 0 0 0.978515,19.99024 24.5,24.5 0 0 0 -5.34375,-5.80078 49.051804,48.795193 0 0 0 -0.521484,6.05468 24.5,24.5 0 0 0 4.146484,0.78516 24.5,24.5 0 0 0 0.0078,0.002 24.5,24.5 0 0 0 2.271484,0.11719 24.5,24.5 0 0 0 0.0293,0.002 24.466154,24.533893 45.039603 0 0 -0.865234,1.70703 24.533893,24.466154 44.960397 0 0 -0.419922,0.92188 24.466154,24.533893 45.039603 0 0 -0.505859,1.29297 24.533893,24.466154 44.960397 0 0 -0.34961,1.0332 24.466154,24.533893 45.039603 0 0 -0.351562,1.25977 24.533893,24.466154 44.960397 0 0 -0.265625,1.13867 24.466154,24.533893 45.039603 0 0 -0.216797,1.25195 24.533893,24.466154 44.960397 0 0 -0.150391,1.16992 24.466154,24.533893 45.039603 0 0 -0.08984,1.24805 24.533893,24.466154 44.960397 0 0 -0.0332,1.21289 24.466154,24.533893 45.039603 0 0 0.0332,1.20899 24.533893,24.466154 44.960397 0 0 0.08984,1.2539 24.466154,24.533893 45.039603 0 0 0.150391,1.16016 24.533893,24.466154 44.960397 0 0 0.21875,1.26562 24.466154,24.533893 45.039603 0 0 0.261718,1.12891 24.533893,24.466154 44.960397 0 0 0.353516,1.26172 24.466154,24.533893 45.039603 0 0 0.34961,1.0332 24.533893,24.466154 44.960397 0 0 0.505859,1.29297 24.466154,24.533893 45.039603 0 0 0.251953,0.55273 49.051804,48.795193 0 0 0 1.119141,1.93946 24.533893,24.466154 44.960397 0 0 1.451171,-3.09375 24.466154,24.533893 45.039603 0 0 0.002,-0.004 24.533893,24.466154 44.960397 0 0 0.746093,-2.19726 24.466154,24.533893 45.039603 0 0 0.07617,-0.27149 24.533893,24.466154 44.960397 0 0 0.462891,-1.99414 24.466154,24.533893 45.039603 0 0 0.0957,-0.55859 24.533893,24.466154 44.960397 0 0 0.21875,-1.69141 24.466154,24.533893 45.039603 0 0 0.07031,-0.9707 24.533893,24.466154 44.960397 0 0 0.03711,-1.31641 24.466154,24.533893 45.039603 0 0 -0.03711,-1.31836 24.533893,24.466154 44.960397 0 0 -0.07031,-0.9707 24.466154,24.533893 45.039603 0 0 -0.21875,-1.69727 24.533893,24.466154 44.960397 0 0 -0.0957,-0.54492 24.466154,24.533893 45.039603 0 0 -0.462891,-2.00391 24.533893,24.466154 44.960397 0 0 -0.07617,-0.26953 24.466154,24.533893 45.039603 0 0 -0.748047,-2.20117 24.533893,24.466154 44.960397 0 0 -0.002,-0.004 24.466154,24.533893 45.039603 0 0 -1.408203,-3.00782 24.5,24.5 0 0 0 20.4375,12.0293 24.5,24.5 0 0 0 -20.466797,12.10938 49.051804,48.795193 0 0 0 1.697266,2.76367 24.5,24.5 0 0 0 19.382813,9.625 24.5,24.5 0 0 0 -0.01563,-0.0274 24.5,24.5 0 0 0 0.02734,0.002 24.533893,24.466154 44.960397 0 0 0.02539,0.0469 24.533893,24.466154 44.960397 0 0 2.287109,-5.47461 24.466154,24.533893 45.039603 0 0 0.06055,-0.21484 24.533893,24.466154 44.960397 0 0 0.466797,-2.01172 24.466154,24.533893 45.039603 0 0 0.09961,-0.57422 24.533893,24.466154 44.960397 0 0 0.220703,-1.71484 24.466154,24.533893 45.039603 0 0 0.06641,-0.90625 24.533893,24.466154 44.960397 0 0 0.03711,-1.35352 24.466154,24.533893 45.039603 0 0 -0.03711,-1.35156 24.533893,24.466154 44.960397 0 0 -0.06641,-0.9082 24.466154,24.533893 45.039603 0 0 -0.220703,-1.71485 24.533893,24.466154 44.960397 0 0 -0.09961,-0.57422 24.466154,24.533893 45.039603 0 0 -0.466797,-2.00586 24.533893,24.466154 44.960397 0 0 -0.0625,-0.22461 24.466154,24.533893 45.039603 0 0 -2.261719,-5.42382 24.5,24.5 0 0 0 0.0078,0 24.5,24.5 0 0 0 7.324219,7.90625 24.5,24.5 0 0 0 13.46289,4.29687 24.5,24.5 0 0 0 -20.791015,12.22852 24.5,24.5 0 0 0 0.002,0 24.5,24.5 0 0 0 -0.02148,0.0351 24.5,24.5 0 0 0 0.0332,-0.002 24.5,24.5 0 0 0 16.994141,11.83594 49.051804,48.795193 0 0 0 4.035156,0.20117 24.5,24.5 0 0 0 -20.810547,-12.04883 24.5,24.5 0 0 0 20.910157,-12.23242 24.5,24.5 0 0 0 0.02148,0.002 24.5,24.5 0 0 0 -0.01172,-0.0176 24.5,24.5 0 0 0 0.0078,-0.0137 24.533893,24.466154 44.960397 0 0 0.01758,0.0312 24.5,24.5 0 0 0 -0.0059,0.008 24.5,24.5 0 0 0 0.02148,-0.002 24.5,24.5 0 0 0 7.337891,7.91406 24.5,24.5 0 0 0 13.638671,4.3125 24.5,24.5 0 0 0 -20.886718,12.0586 49.051804,48.795193 0 0 0 0.02539,0.002 49.051804,48.795193 0 0 0 3.353516,-0.11719 24.5,24.5 0 0 0 17.664062,-11.93359 24.5,24.5 0 0 0 0.02539,0 24.466154,24.533893 45.039603 0 0 -0.849609,1.67969 24.533893,24.466154 44.960397 0 0 -0.421875,0.92578 24.466154,24.533893 45.039603 0 0 -0.50586,1.29297 24.533893,24.466154 44.960397 0 0 -0.351562,1.03515 24.466154,24.533893 45.039603 0 0 -0.349609,1.25196 24.533893,24.466154 44.960397 0 0 -0.265626,1.14258 24.466154,24.533893 45.039603 0 0 -0.216796,1.25195 24.533893,24.466154 44.960397 0 0 -0.002,0.0176 49.051804,48.795193 0 0 0 5.417969,-2.56836 24.466154,24.533893 45.039603 0 0 -0.08203,-0.35743 24.533893,24.466154 44.960397 0 0 -0.07227,-0.25976 24.466154,24.533893 45.039603 0 0 -0.75,-2.20508 24.533893,24.466154 44.960397 0 0 -0.002,-0.004 24.466154,24.533893 45.039603 0 0 -1.365234,-2.92383 24.5,24.5 0 0 0 3.84375,4.85351 49.051804,48.795193 0 0 0 5.03125,-3.37695 24.5,24.5 0 0 0 -4.191406,-1.28125 24.5,24.5 0 0 0 -4.835938,-0.49609 24.533893,24.466154 44.960397 0 0 1.519531,-3.22852 24.466154,24.533893 45.039603 0 0 0.002,-0.004 24.533893,24.466154 44.960397 0 0 0.748046,-2.20117 24.466154,24.533893 45.039603 0 0 0.07227,-0.25976 24.533893,24.466154 44.960397 0 0 0.464844,-2.00782 24.466154,24.533893 45.039603 0 0 0.0957,-0.54492 24.533893,24.466154 44.960397 0 0 0.21875,-1.69726 24.466154,24.533893 45.039603 0 0 0.07031,-0.97266 24.533893,24.466154 44.960397 0 0 0.03711,-1.31641 24.466154,24.533893 45.039603 0 0 -0.03711,-1.31836 24.533893,24.466154 44.960397 0 0 -0.07031,-0.9707 24.466154,24.533893 45.039603 0 0 -0.21875,-1.69726 24.533893,24.466154 44.960397 0 0 -0.0957,-0.54493 24.466154,24.533893 45.039603 0 0 -0.464844,-2.01171 24.533893,24.466154 44.960397 0 0 -0.07031,-0.25 24.466154,24.533893 45.039603 0 0 -2.28125,-5.45704 24.5,24.5 0 0 0 -0.02344,0.002 24.5,24.5 0 0 0 -0.548828,-0.9043 24.5,24.5 0 0 0 -4.857422,-5.53906 24.5,24.5 0 0 0 -0.273438,-0.20703 24.5,24.5 0 0 0 -1.65625,-1.26368 24.5,24.5 0 0 1 -0.002,-0.002 24.5,24.5 0 0 0 -13.636718,-4.31055 24.5,24.5 0 0 0 20.986328,-12.2207 24.466154,24.533893 45.039603 0 0 -0.0059,24.43164 24.466154,24.533893 45.039603 0 0 0.02539,-24.43555 24.5,24.5 0 0 0 0.02734,0.002 24.5,24.5 0 0 0 -21.164063,-12.24805 z M 85.21875,173.25391 a 24.466154,24.533893 45.039603 0 0 0.01563,0.12695 24.533893,24.466154 44.960397 0 0 0.177734,1.01758 24.466154,24.533893 45.039603 0 0 0.302735,1.30664 24.533893,24.466154 44.960397 0 0 0.308594,1.10937 24.466154,24.533893 45.039603 0 0 0.404296,1.18946 24.533893,24.466154 44.960397 0 0 0.455078,1.16211 24.466154,24.533893 45.039603 0 0 0.447266,0.98046 24.533893,24.466154 44.960397 0 0 0.857422,1.69336 24.5,24.5 0 0 0 -0.0078,0.0117 24.5,24.5 0 0 0 0.01367,0 24.533893,24.466154 44.960397 0 0 0.0039,0.008 24.533893,24.466154 44.960397 0 0 0.0039,-0.01 24.5,24.5 0 0 0 0.0059,0 24.5,24.5 0 0 0 5.400391,6.43555 24.5,24.5 0 0 1 0.002,0.002 24.5,24.5 0 0 0 0.628906,0.48047 24.5,24.5 0 0 0 1.28711,0.98242 24.5,24.5 0 0 0 13.667968,4.32227 24.5,24.5 0 0 0 -20.953125,12.14062 24.533893,24.466154 44.960397 0 0 -0.06641,-24.35351 24.533893,24.466154 44.960397 0 0 0.01172,24.44531 24.5,24.5 0 0 0 -0.0059,0.008 24.5,24.5 0 0 0 20.960935,12.23828 24.5,24.5 0 0 0 -20.996092,12.23828 24.5,24.5 0 0 0 0.05273,-0.002 24.5,24.5 0 0 0 -0.0078,0.0137 24.5,24.5 0 0 0 -0.04492,-0.002 24.5,24.5 0 0 0 20.787112,12.22851 24.5,24.5 0 0 0 -20.787112,12.22852 24.5,24.5 0 0 0 21.140632,-12.21094 24.5,24.5 0 0 1 0.002,0 24.466154,24.533893 45.039603 0 0 -0.60547,1.1875 49.051804,48.795193 0 0 0 0.67383,-1.09375 24.466154,24.533893 45.039603 0 0 -0.0488,-0.0918 24.5,24.5 0 0 1 0.002,0 24.5,24.5 0 0 0 -0.0117,-0.0195 24.5,24.5 0 0 0 0.0117,-0.0195 24.5,24.5 0 0 0 -0.0234,0.002 24.5,24.5 0 0 0 -20.953132,-12.20118 24.5,24.5 0 0 0 21.011722,-12.24023 24.5,24.5 0 0 0 -0.0527,0.002 24.5,24.5 0 0 0 0.008,-0.0117 24.5,24.5 0 0 0 0.0449,0.002 24.5,24.5 0 0 0 -21.1543,-12.24805 24.5,24.5 0 0 0 21.14453,-12.23242 24.5,24.5 0 0 0 0.0469,0.002 24.5,24.5 0 0 0 -5.42969,-6.48047 24.5,24.5 0 0 0 -1.28125,-0.97851 24.5,24.5 0 0 0 -0.6289,-0.48047 24.5,24.5 0 0 0 -13.427742,-4.31446 24.5,24.5 0 0 0 8.542969,-1.74218 49.051804,48.795193 0 0 0 -4.972656,-3.38477 24.5,24.5 0 0 0 -3.873047,4.9375 24.533893,24.466154 44.960397 0 0 2.318359,-5.88672 49.051804,48.795193 0 0 0 -5.410156,-2.49804 z m 24.16211,20.82812 a 24.533893,24.466154 44.960397 0 0 0.0215,-0.0449 49.051804,48.795193 0 0 0 -0.35351,-0.61328 24.533893,24.466154 44.960397 0 0 0.33203,0.6582 z m 0,0 a 24.466154,24.533893 45.039603 0 0 -0.01,0.0176 24.533893,24.466154 44.960397 0 0 -0.006,-0.01 24.533893,24.466154 44.960397 0 0 -0.16015,0.3125 24.466154,24.533893 45.039603 0 0 -0.54297,1.0625 24.533893,24.466154 44.960397 0 0 -0.68555,1.50586 24.466154,24.533893 45.039603 0 0 -0.27344,0.70313 24.533893,24.466154 44.960397 0 0 -0.54101,1.58984 24.466154,24.533893 45.039603 0 0 -0.2207,0.79102 24.533893,24.466154 44.960397 0 0 -0.35352,1.51953 24.466154,24.533893 45.039603 0 0 -0.16406,0.94531 24.533893,24.466154 44.960397 0 0 -0.18555,1.43555 24.466154,24.533893 45.039603 0 0 -0.0762,1.06836 24.533893,24.466154 44.960397 0 0 -0.0371,1.28906 24.466154,24.533893 45.039603 0 0 0.0371,1.28906 24.533893,24.466154 44.960397 0 0 0.0762,1.06446 24.466154,24.533893 45.039603 0 0 0.18555,1.43945 24.533893,24.466154 44.960397 0 0 0.16406,0.94531 24.466154,24.533893 45.039603 0 0 0.35352,1.51563 24.533893,24.466154 44.960397 0 0 0.22265,0.80078 24.466154,24.533893 45.039603 0 0 0.53321,1.56836 24.533893,24.466154 44.960397 0 0 0.28515,0.72851 24.466154,24.533893 45.039603 0 0 0.68164,1.49805 24.533893,24.466154 44.960397 0 0 0.5293,1.03516 24.466154,24.533893 45.039603 0 0 0.17187,0.33789 24.466154,24.533893 45.039603 0 0 0.006,-0.0117 24.533893,24.466154 44.960397 0 0 0.01,0.0176 24.533893,24.466154 44.960397 0 0 0.29102,-0.56836 24.466154,24.533893 45.039603 0 0 0.33203,-0.65235 24.533893,24.466154 44.960397 0 0 0.80468,-1.76172 24.466154,24.533893 45.039603 0 0 0.19922,-0.50976 24.533893,24.466154 44.960397 0 0 0.59766,-1.75781 24.466154,24.533893 45.039603 0 0 0.17969,-0.64649 24.533893,24.466154 44.960397 0 0 0.38281,-1.64258 24.466154,24.533893 45.039603 0 0 0.14844,-0.85156 24.533893,24.466154 44.960397 0 0 0.1914,-1.49805 24.466154,24.533893 45.039603 0 0 0.0762,-1.0664 24.533893,24.466154 44.960397 0 0 0.0352,-1.24805 24.466154,24.533893 45.039603 0 0 -0.0371,-1.34375 24.533893,24.466154 44.960397 0 0 -0.0723,-1.01172 24.466154,24.533893 45.039603 0 0 -0.19532,-1.50976 24.533893,24.466154 44.960397 0 0 -0.14648,-0.85157 24.466154,24.533893 45.039603 0 0 -0.38281,-1.64257 24.533893,24.466154 44.960397 0 0 -0.17969,-0.64649 24.466154,24.533893 45.039603 0 0 -0.59766,-1.75781 24.533893,24.466154 44.960397 0 0 -0.19922,-0.50977 24.466154,24.533893 45.039603 0 0 -0.80468,-1.76172 24.533893,24.466154 44.960397 0 0 -0.32618,-0.64062 24.466154,24.533893 45.039603 0 0 -0.29687,-0.58008 z M 45.75,181.73633 a 24.533893,24.466154 44.960397 0 0 0.03125,0.0566 24.5,24.5 0 0 0 -0.0059,0.008 24.5,24.5 0 0 0 -0.03125,-0.0527 24.466154,24.533893 45.039603 0 0 0.0059,-0.0117 z m 63.66016,12.31445 a 24.5,24.5 0 0 0 -0.002,0.004 24.5,24.5 0 0 0 0.002,0 24.5,24.5 0 0 0 -0.0215,0.0352 24.5,24.5 0 0 0 0.0332,-0.002 24.5,24.5 0 0 0 0.0898,0.13867 49.051804,48.795193 0 0 0 -0.10156,-0.17578 z m -63.751957,12.27344 a 24.5,24.5 0 0 0 0.04687,0.002 24.466154,24.533893 45.039603 0 0 -0.02344,24.39258 24.5,24.5 0 0 0 -0.0039,0 24.5,24.5 0 0 0 -21.078125,-12.20508 24.533893,24.466154 44.960397 0 0 0.002,-0.006 24.5,24.5 0 0 0 0.04492,0.002 24.5,24.5 0 0 0 -0.0098,-0.0156 24.5,24.5 0 0 0 21.021484,-12.16992 z m 0.07031,0.004 a 24.5,24.5 0 0 0 0.0059,0 24.5,24.5 0 0 0 18.708984,12.10352 24.5,24.5 0 0 0 2.212891,0.11719 24.5,24.5 0 0 0 -20.908203,12.23047 24.5,24.5 0 0 0 -0.02344,-0.002 24.5,24.5 0 0 0 0.01172,0.0195 24.5,24.5 0 0 0 -0.0039,0.006 24.466154,24.533893 45.039603 0 0 -0.01563,-0.0332 24.466154,24.533893 45.039603 0 0 -0.880859,1.74219 24.533893,24.466154 44.960397 0 0 -0.410157,0.90039 24.466154,24.533893 45.039603 0 0 -0.496093,1.26562 24.533893,24.466154 44.960397 0 0 -0.369141,1.08985 24.466154,24.533893 45.039603 0 0 -0.339844,1.21484 24.533893,24.466154 44.960397 0 0 -0.269531,1.16211 24.466154,24.533893 45.039603 0 0 -0.210938,1.21289 24.533893,24.466154 44.960397 0 0 -0.158203,1.23633 24.466154,24.533893 45.039603 0 0 -0.08594,1.18359 24.533893,24.466154 44.960397 0 0 -0.03516,1.24219 24.466154,24.533893 45.039603 0 0 0.03516,1.24414 24.533893,24.466154 44.960397 0 0 0.08594,1.18164 24.466154,24.533893 45.039603 0 0 0.158203,1.23633 24.533893,24.466154 44.960397 0 0 0.210938,1.21289 24.466154,24.533893 45.039603 0 0 0.271484,1.16602 24.533893,24.466154 44.960397 0 0 0.335938,1.20312 24.466154,24.533893 45.039603 0 0 0.376953,1.11133 24.533893,24.466154 44.960397 0 0 0.486328,1.24414 24.466154,24.533893 45.039603 0 0 0.414063,0.91211 24.533893,24.466154 44.960397 0 0 0.763671,1.52539 24.5,24.5 0 0 0 -20.453125,-12.05078 24.5,24.5 0 0 0 20.533204,-12.21484 24.5,24.5 0 0 0 -0.02344,0.002 24.5,24.5 0 0 0 0.0059,-0.01 24.5,24.5 0 0 0 0.01758,0 24.5,24.5 0 0 0 -0.0098,-0.0156 24.5,24.5 0 0 0 0.0078,-0.0117 24.5,24.5 0 0 0 0.02344,0.002 24.466154,24.533893 45.039603 0 0 0.02734,-24.42969 z m 69.820317,5.20899 a 24.5,24.5 0 0 0 -6.14063,7.02344 24.5,24.5 0 0 0 6.66211,-0.96094 49.051804,48.795193 0 0 0 -0.52148,-6.0625 z m -91.031255,6.9668 a 24.5,24.5 0 0 0 0.02734,0.002 24.533893,24.466154 44.960397 0 0 0.002,0.004 24.5,24.5 0 0 0 -0.0098,0 24.5,24.5 0 0 0 0.01563,0.0273 24.5,24.5 0 0 0 -0.01953,-0.002 24.466154,24.533893 45.039603 0 0 -0.01563,-0.0312 z m -0.04492,0.006 a 24.5,24.5 0 0 0 -6.441406,0.9082 49.051804,48.795193 0 0 0 0.503906,5.94531 24.5,24.5 0 0 0 5.9375,-6.85351 z m 84.935545,0.0586 a 24.5,24.5 0 0 0 0.0156,0.0273 24.5,24.5 0 0 0 -0.0352,-0.002 24.5,24.5 0 0 0 6.13281,7.0332 49.051804,48.795193 0 0 0 0.53321,-6.09765 24.5,24.5 0 0 0 -6.64649,-0.96094 z m -0.043,0.0254 a 24.533893,24.466154 44.960397 0 0 0.0156,24.45313 24.533893,24.466154 44.960397 0 0 -0.0156,-24.45313 z m -42.406247,0.0176 a 24.5,24.5 0 0 0 7.302735,7.87305 24.5,24.5 0 0 0 11.410156,4.20507 24.5,24.5 0 0 0 2.072266,0.10743 24.5,24.5 0 0 0 -11.394532,3.01953 24.5,24.5 0 0 0 -0.0098,0.006 24.5,24.5 0 0 0 -2.046875,1.26367 24.5,24.5 0 0 0 -7.310547,7.85156 24.533893,24.466154 44.960397 0 0 1.05664,-2.06836 24.533893,24.466154 44.960397 0 0 1.167969,-3.2793 24.466154,24.533893 45.039603 0 0 0.07031,-0.25 24.533893,24.466154 44.960397 0 0 0.464844,-2.01172 24.466154,24.533893 45.039603 0 0 0.0957,-0.54492 24.533893,24.466154 44.960397 0 0 0.21875,-1.69726 24.466154,24.533893 45.039603 0 0 0.07031,-0.97071 24.533893,24.466154 44.960397 0 0 0.03711,-1.31835 24.466154,24.533893 45.039603 0 0 -0.03711,-1.31641 24.533893,24.466154 44.960397 0 0 -0.07031,-0.97266 24.466154,24.533893 45.039603 0 0 -0.21875,-1.69726 24.533893,24.466154 44.960397 0 0 -0.0957,-0.54493 24.466154,24.533893 45.039603 0 0 -0.464844,-2.00781 24.533893,24.466154 44.960397 0 0 -0.07227,-0.25976 24.466154,24.533893 45.039603 0 0 -0.75,-2.20508 24.533893,24.466154 44.960397 0 0 -0.002,-0.004 24.466154,24.533893 45.039603 0 0 -1.494141,-3.17773 z m 21.134766,12.20312 a 24.5,24.5 0 0 1 0.002,0 24.466154,24.533893 45.039603 0 0 -0.84375,1.66797 24.533893,24.466154 44.960397 0 0 -0.433594,0.95117 24.466154,24.533893 45.039603 0 0 -0.49414,1.26563 24.533893,24.466154 44.960397 0 0 -0.359375,1.05859 24.466154,24.533893 45.039603 0 0 -0.345703,1.24024 24.533893,24.466154 44.960397 0 0 -0.267579,1.14648 24.466154,24.533893 45.039603 0 0 -0.216796,1.25195 24.533893,24.466154 44.960397 0 0 -0.150391,1.16993 24.466154,24.533893 45.039603 0 0 -0.08984,1.24804 24.533893,24.466154 44.960397 0 0 -0.0332,1.21289 24.466154,24.533893 45.039603 0 0 0.0332,1.21094 24.533893,24.466154 44.960397 0 0 0.08984,1.25 24.466154,24.533893 45.039603 0 0 0.150391,1.16992 24.533893,24.466154 44.960397 0 0 0.216796,1.25196 24.466154,24.533893 45.039603 0 0 0.265626,1.14257 24.533893,24.466154 44.960397 0 0 0.349609,1.25196 24.466154,24.533893 45.039603 0 0 0.351562,1.03515 24.533893,24.466154 44.960397 0 0 0.50586,1.29297 24.466154,24.533893 45.039603 0 0 0.421875,0.92578 24.533893,24.466154 44.960397 0 0 0.861328,1.69922 24.5,24.5 0 0 0 -0.0059,0 24.5,24.5 0 0 0 -5.414062,-6.45508 24.5,24.5 0 0 0 -1.910156,-1.45898 24.5,24.5 0 0 0 -0.0059,-0.004 24.5,24.5 0 0 0 -13.480468,-4.3125 24.5,24.5 0 0 0 11.40039,-3.02539 24.5,24.5 0 0 0 9.402344,-9.1875 z m -21.185547,12.2461 a 24.533893,24.466154 44.960397 0 0 -0.08594,24.25976 49.051804,48.795193 0 0 0 0.195312,0.01 24.533893,24.466154 44.960397 0 0 -0.109375,-24.26953 z m -21.228515,12.19726 a 24.5,24.5 0 0 0 -8.794922,1.68164 49.051804,48.795193 0 0 0 4.910156,3.35938 24.5,24.5 0 0 0 3.884766,-5.04102 z m 0.02148,0.0254 a 24.533893,24.466154 44.960397 0 0 -2.285156,5.46485 24.466154,24.533893 45.039603 0 0 -0.06445,0.23242 24.533893,24.466154 44.960397 0 0 -0.05469,0.23437 49.051804,48.795193 0 0 0 5.357422,2.52149 24.533893,24.466154 44.960397 0 0 -0.1875,-1.08008 24.466154,24.533893 45.039603 0 0 -0.269531,-1.15625 24.533893,24.466154 44.960397 0 0 -0.339844,-1.22266 24.466154,24.533893 45.039603 0 0 -0.369141,-1.08789 24.533893,24.466154 44.960397 0 0 -0.492187,-1.25781 24.466154,24.533893 45.039603 0 0 -0.423828,-0.92773 24.533893,24.466154 44.960397 0 0 -0.871095,-1.72071 z"
           id="path1202" />
        <ellipse
           style="opacity:1;vector-effect:none;fill:none;fill-opacity:1;fill-rule:evenodd;stroke:#003100;stroke-width:0.26456693;stroke-linecap:butt;stroke-linejoin:miter;stroke-miterlimit:4;stroke-dasharray:none;stroke-dashoffset:0;stroke-opacity:1"
           id="ellipse1204"
           cx="66.951172"
           cy="218.53615"
           rx="48.919922"
           ry="48.790695" />
      </g>
      <g
         transform="rotate(180,96.050784,217.53735)"
         id="g1194">
        <path
           inkscape:connector-curvature="0"
           style="fill:none;fill-opacity:0.19215686;stroke:#003100;stroke-width:0.26456693;stroke-miterlimit:4;stroke-dasharray:none;stroke-dashoffset:0;stroke-opacity:1"
           d="m 67.041016,169.74219 a 49.051804,48.795193 0 0 0 -0.158204,0.006 24.466154,24.533893 45.039603 0 0 0.0625,24.29883 24.466154,24.533893 45.039603 0 0 0.0957,-24.30469 z m 0.05469,0.002 a 24.5,24.5 0 0 0 21.056641,12.08008 24.5,24.5 0 0 0 -17.263672,-11.89063 49.051804,48.795193 0 0 0 -3.792969,-0.18945 z m 21.056641,12.08008 a 24.5,24.5 0 0 0 -21.164063,12.24805 24.5,24.5 0 0 0 0.0059,0 24.5,24.5 0 0 0 -0.0059,0.01 24.5,24.5 0 0 0 21.164063,-12.24805 24.5,24.5 0 0 0 -0.0059,0 24.5,24.5 0 0 0 0.0059,-0.01 z m -21.164063,12.25781 a 24.5,24.5 0 0 0 20.976563,12.23828 24.5,24.5 0 0 0 -20.958985,12.15039 24.533893,24.466154 44.960397 0 0 3.001953,-15.10351 24.466154,24.533893 45.039603 0 0 -0.01758,-0.13477 24.533893,24.466154 44.960397 0 0 -0.371093,-2.14062 24.466154,24.533893 45.039603 0 0 -0.101563,-0.44336 24.533893,24.466154 44.960397 0 0 -0.505859,-1.80664 24.466154,24.533893 45.039603 0 0 -0.228516,-0.67188 24.533893,24.466154 44.960397 0 0 -0.59375,-1.52344 24.466154,24.533893 45.039603 0 0 -0.378906,-0.83203 24.533893,24.466154 44.960397 0 0 -0.865235,-1.70703 24.533893,24.466154 44.960397 0 0 -0.0039,0.006 24.466154,24.533893 45.039603 0 0 -0.01563,-0.0312 24.466154,24.533893 45.039603 0 0 -1.085937,2.1875 24.533893,24.466154 44.960397 0 0 -0.01367,0.0293 24.466154,24.533893 45.039603 0 0 -0.876953,2.24414 24.533893,24.466154 44.960397 0 0 -0.01367,0.0391 24.466154,24.533893 45.039603 0 0 1.972656,19.95313 24.466154,24.533893 45.039603 0 0 0.01953,-0.0352 24.533893,24.466154 44.960397 0 0 0.02344,0.043 24.5,24.5 0 0 0 -0.03516,-0.002 24.5,24.5 0 0 0 0.0059,0.0117 24.466154,24.533893 45.039603 0 0 -0.867187,1.71289 24.533893,24.466154 44.960397 0 0 -0.421876,0.92579 24.533893,24.466154 44.960397 0 0 -0.0059,0.0117 24.466154,24.533893 45.039603 0 0 -0.5,1.28126 24.533893,24.466154 44.960397 0 0 -0.351562,1.03515 24.466154,24.533893 45.039603 0 0 -0.34961,1.25195 24.533893,24.466154 44.960397 0 0 -0.265625,1.14258 24.466154,24.533893 45.039603 0 0 -0.216797,1.25196 24.533893,24.466154 44.960397 0 0 -0.15039,1.16992 24.466154,24.533893 45.039603 0 0 -0.08984,1.25 24.533893,24.466154 44.960397 0 0 -0.04883,0.67773 24.533893,24.466154 44.960397 0 0 0.01563,0.54688 24.466154,24.533893 45.039603 0 0 0.0332,1.19922 24.533893,24.466154 44.960397 0 0 0.08984,1.24804 24.466154,24.533893 45.039603 0 0 0.15039,1.16992 24.533893,24.466154 44.960397 0 0 0.216797,1.25196 24.466154,24.533893 45.039603 0 0 0.267578,1.14648 24.533893,24.466154 44.960397 0 0 0.345704,1.24024 24.533893,24.466154 44.960397 0 0 0.002,0.004 24.466154,24.533893 45.039603 0 0 0.357421,1.05469 24.533893,24.466154 44.960397 0 0 0.494141,1.26562 24.533893,24.466154 44.960397 0 0 0.002,0.006 24.466154,24.533893 45.039603 0 0 0.431641,0.94532 24.533893,24.466154 44.960397 0 0 0.839844,1.6582 24.5,24.5 0 0 0 -0.01563,0.002 24.5,24.5 0 0 0 -5.388672,-6.42968 24.5,24.5 0 0 0 -1.927735,-1.47266 24.5,24.5 0 0 0 -0.0078,-0.006 24.5,24.5 0 0 0 -13.453125,-4.29687 24.5,24.5 0 0 0 2.0625,-0.10743 24.5,24.5 0 0 0 18.166016,-11.21289 24.5,24.5 0 0 0 0.572265,-0.9414 24.5,24.5 0 0 0 -0.0332,0.002 24.5,24.5 0 0 0 -20.962891,-12.21484 24.5,24.5 0 0 0 21.013672,-12.24024 24.5,24.5 0 0 0 -21.154297,12.23242 24.5,24.5 0 0 0 -0.01563,0 24.5,24.5 0 0 0 -0.01172,-0.0195 24.533893,24.466154 44.960397 0 0 -0.01367,-24.41211 24.5,24.5 0 0 0 0.0332,-0.0547 24.5,24.5 0 0 0 0.0039,0.006 24.5,24.5 0 0 0 -0.0059,0 24.5,24.5 0 0 0 21.164062,12.24805 24.5,24.5 0 0 0 -0.0059,-0.01 24.5,24.5 0 0 0 0.0059,0 24.5,24.5 0 0 0 -21.160156,-12.24805 24.5,24.5 0 0 0 21.054687,-12.07422 49.051804,48.795193 0 0 0 -3.871093,0.18945 24.5,24.5 0 0 0 -17.072266,11.69532 24.533893,24.466154 44.960397 0 0 2.855469,-8.33204 49.051804,48.795193 0 0 0 -5.402344,2.58789 24.466154,24.533893 45.039603 0 0 2.082031,5.31055 24.5,24.5 0 0 0 -3.566406,-4.46289 49.051804,48.795193 0 0 0 -5,3.375 24.5,24.5 0 0 0 8.851563,1.71094 24.5,24.5 0 0 0 -0.01367,-0.0234 24.5,24.5 0 0 0 0.08984,0.006 24.5,24.5 0 0 0 -0.01172,0.0176 24.5,24.5 0 0 0 -2.484375,0.13476 24.5,24.5 0 0 0 -17.22461,9.86329 49.051804,48.795193 0 0 0 -1.388672,2.25195 24.5,24.5 0 0 0 2.384766,-0.12891 24.5,24.5 0 0 0 18.521484,-11.79883 24.533893,24.466154 44.960397 0 0 -0.01758,23.83399 24.5,24.5 0 0 0 -20.894531,-11.89844 49.051804,48.795193 0 0 0 -0.02734,0.0449 24.5,24.5 0 0 0 20.355469,12.16211 24.5,24.5 0 0 0 -20.021484,11.50782 24.533893,24.466154 44.960397 0 0 1.58789,-19.16797 24.466154,24.533893 45.039603 0 0 -0.111328,-0.33008 24.533893,24.466154 44.960397 0 0 -0.68164,-1.74805 24.466154,24.533893 45.039603 0 0 -0.347657,-0.76367 24.533893,24.466154 44.960397 0 0 -0.814453,-1.60547 49.051804,48.795193 0 0 0 -1.664062,3.16992 24.466154,24.533893 45.039603 0 0 0.978515,19.99024 24.5,24.5 0 0 0 -5.34375,-5.80078 49.051804,48.795193 0 0 0 -0.521484,6.05468 24.5,24.5 0 0 0 4.146484,0.78516 24.5,24.5 0 0 0 0.0078,0.002 24.5,24.5 0 0 0 2.271484,0.11719 24.5,24.5 0 0 0 0.0293,0.002 24.466154,24.533893 45.039603 0 0 -0.865234,1.70703 24.533893,24.466154 44.960397 0 0 -0.419922,0.92188 24.466154,24.533893 45.039603 0 0 -0.505859,1.29297 24.533893,24.466154 44.960397 0 0 -0.34961,1.0332 24.466154,24.533893 45.039603 0 0 -0.351562,1.25977 24.533893,24.466154 44.960397 0 0 -0.265625,1.13867 24.466154,24.533893 45.039603 0 0 -0.216797,1.25195 24.533893,24.466154 44.960397 0 0 -0.150391,1.16992 24.466154,24.533893 45.039603 0 0 -0.08984,1.24805 24.533893,24.466154 44.960397 0 0 -0.0332,1.21289 24.466154,24.533893 45.039603 0 0 0.0332,1.20899 24.533893,24.466154 44.960397 0 0 0.08984,1.2539 24.466154,24.533893 45.039603 0 0 0.150391,1.16016 24.533893,24.466154 44.960397 0 0 0.21875,1.26562 24.466154,24.533893 45.039603 0 0 0.261718,1.12891 24.533893,24.466154 44.960397 0 0 0.353516,1.26172 24.466154,24.533893 45.039603 0 0 0.34961,1.0332 24.533893,24.466154 44.960397 0 0 0.505859,1.29297 24.466154,24.533893 45.039603 0 0 0.251953,0.55273 49.051804,48.795193 0 0 0 1.119141,1.93946 24.533893,24.466154 44.960397 0 0 1.451171,-3.09375 24.466154,24.533893 45.039603 0 0 0.002,-0.004 24.533893,24.466154 44.960397 0 0 0.746093,-2.19726 24.466154,24.533893 45.039603 0 0 0.07617,-0.27149 24.533893,24.466154 44.960397 0 0 0.462891,-1.99414 24.466154,24.533893 45.039603 0 0 0.0957,-0.55859 24.533893,24.466154 44.960397 0 0 0.21875,-1.69141 24.466154,24.533893 45.039603 0 0 0.07031,-0.9707 24.533893,24.466154 44.960397 0 0 0.03711,-1.31641 24.466154,24.533893 45.039603 0 0 -0.03711,-1.31836 24.533893,24.466154 44.960397 0 0 -0.07031,-0.9707 24.466154,24.533893 45.039603 0 0 -0.21875,-1.69727 24.533893,24.466154 44.960397 0 0 -0.0957,-0.54492 24.466154,24.533893 45.039603 0 0 -0.462891,-2.00391 24.533893,24.466154 44.960397 0 0 -0.07617,-0.26953 24.466154,24.533893 45.039603 0 0 -0.748047,-2.20117 24.533893,24.466154 44.960397 0 0 -0.002,-0.004 24.466154,24.533893 45.039603 0 0 -1.408203,-3.00782 24.5,24.5 0 0 0 20.4375,12.0293 24.5,24.5 0 0 0 -20.466797,12.10938 49.051804,48.795193 0 0 0 1.697266,2.76367 24.5,24.5 0 0 0 19.382813,9.625 24.5,24.5 0 0 0 -0.01563,-0.0274 24.5,24.5 0 0 0 0.02734,0.002 24.533893,24.466154 44.960397 0 0 0.02539,0.0469 24.533893,24.466154 44.960397 0 0 2.287109,-5.47461 24.466154,24.533893 45.039603 0 0 0.06055,-0.21484 24.533893,24.466154 44.960397 0 0 0.466797,-2.01172 24.466154,24.533893 45.039603 0 0 0.09961,-0.57422 24.533893,24.466154 44.960397 0 0 0.220703,-1.71484 24.466154,24.533893 45.039603 0 0 0.06641,-0.90625 24.533893,24.466154 44.960397 0 0 0.03711,-1.35352 24.466154,24.533893 45.039603 0 0 -0.03711,-1.35156 24.533893,24.466154 44.960397 0 0 -0.06641,-0.9082 24.466154,24.533893 45.039603 0 0 -0.220703,-1.71485 24.533893,24.466154 44.960397 0 0 -0.09961,-0.57422 24.466154,24.533893 45.039603 0 0 -0.466797,-2.00586 24.533893,24.466154 44.960397 0 0 -0.0625,-0.22461 24.466154,24.533893 45.039603 0 0 -2.261719,-5.42382 24.5,24.5 0 0 0 0.0078,0 24.5,24.5 0 0 0 7.324219,7.90625 24.5,24.5 0 0 0 13.46289,4.29687 24.5,24.5 0 0 0 -20.791015,12.22852 24.5,24.5 0 0 0 0.002,0 24.5,24.5 0 0 0 -0.02148,0.0351 24.5,24.5 0 0 0 0.0332,-0.002 24.5,24.5 0 0 0 16.994141,11.83594 49.051804,48.795193 0 0 0 4.035156,0.20117 24.5,24.5 0 0 0 -20.810547,-12.04883 24.5,24.5 0 0 0 20.910157,-12.23242 24.5,24.5 0 0 0 0.02148,0.002 24.5,24.5 0 0 0 -0.01172,-0.0176 24.5,24.5 0 0 0 0.0078,-0.0137 24.533893,24.466154 44.960397 0 0 0.01758,0.0312 24.5,24.5 0 0 0 -0.0059,0.008 24.5,24.5 0 0 0 0.02148,-0.002 24.5,24.5 0 0 0 7.337891,7.91406 24.5,24.5 0 0 0 13.638671,4.3125 24.5,24.5 0 0 0 -20.886718,12.0586 49.051804,48.795193 0 0 0 0.02539,0.002 49.051804,48.795193 0 0 0 3.353516,-0.11719 24.5,24.5 0 0 0 17.664062,-11.93359 24.5,24.5 0 0 0 0.02539,0 24.466154,24.533893 45.039603 0 0 -0.849609,1.67969 24.533893,24.466154 44.960397 0 0 -0.421875,0.92578 24.466154,24.533893 45.039603 0 0 -0.50586,1.29297 24.533893,24.466154 44.960397 0 0 -0.351562,1.03515 24.466154,24.533893 45.039603 0 0 -0.349609,1.25196 24.533893,24.466154 44.960397 0 0 -0.265626,1.14258 24.466154,24.533893 45.039603 0 0 -0.216796,1.25195 24.533893,24.466154 44.960397 0 0 -0.002,0.0176 49.051804,48.795193 0 0 0 5.417969,-2.56836 24.466154,24.533893 45.039603 0 0 -0.08203,-0.35743 24.533893,24.466154 44.960397 0 0 -0.07227,-0.25976 24.466154,24.533893 45.039603 0 0 -0.75,-2.20508 24.533893,24.466154 44.960397 0 0 -0.002,-0.004 24.466154,24.533893 45.039603 0 0 -1.365234,-2.92383 24.5,24.5 0 0 0 3.84375,4.85351 49.051804,48.795193 0 0 0 5.03125,-3.37695 24.5,24.5 0 0 0 -4.191406,-1.28125 24.5,24.5 0 0 0 -4.835938,-0.49609 24.533893,24.466154 44.960397 0 0 1.519531,-3.22852 24.466154,24.533893 45.039603 0 0 0.002,-0.004 24.533893,24.466154 44.960397 0 0 0.748046,-2.20117 24.466154,24.533893 45.039603 0 0 0.07227,-0.25976 24.533893,24.466154 44.960397 0 0 0.464844,-2.00782 24.466154,24.533893 45.039603 0 0 0.0957,-0.54492 24.533893,24.466154 44.960397 0 0 0.21875,-1.69726 24.466154,24.533893 45.039603 0 0 0.07031,-0.97266 24.533893,24.466154 44.960397 0 0 0.03711,-1.31641 24.466154,24.533893 45.039603 0 0 -0.03711,-1.31836 24.533893,24.466154 44.960397 0 0 -0.07031,-0.9707 24.466154,24.533893 45.039603 0 0 -0.21875,-1.69726 24.533893,24.466154 44.960397 0 0 -0.0957,-0.54493 24.466154,24.533893 45.039603 0 0 -0.464844,-2.01171 24.533893,24.466154 44.960397 0 0 -0.07031,-0.25 24.466154,24.533893 45.039603 0 0 -2.28125,-5.45704 24.5,24.5 0 0 0 -0.02344,0.002 24.5,24.5 0 0 0 -0.548828,-0.9043 24.5,24.5 0 0 0 -4.857422,-5.53906 24.5,24.5 0 0 0 -0.273438,-0.20703 24.5,24.5 0 0 0 -1.65625,-1.26368 24.5,24.5 0 0 1 -0.002,-0.002 24.5,24.5 0 0 0 -13.636718,-4.31055 24.5,24.5 0 0 0 20.986328,-12.2207 24.466154,24.533893 45.039603 0 0 -0.0059,24.43164 24.466154,24.533893 45.039603 0 0 0.02539,-24.43555 24.5,24.5 0 0 0 0.02734,0.002 24.5,24.5 0 0 0 -21.164063,-12.24805 z M 85.21875,173.25391 a 24.466154,24.533893 45.039603 0 0 0.01563,0.12695 24.533893,24.466154 44.960397 0 0 0.177734,1.01758 24.466154,24.533893 45.039603 0 0 0.302735,1.30664 24.533893,24.466154 44.960397 0 0 0.308594,1.10937 24.466154,24.533893 45.039603 0 0 0.404296,1.18946 24.533893,24.466154 44.960397 0 0 0.455078,1.16211 24.466154,24.533893 45.039603 0 0 0.447266,0.98046 24.533893,24.466154 44.960397 0 0 0.857422,1.69336 24.5,24.5 0 0 0 -0.0078,0.0117 24.5,24.5 0 0 0 0.01367,0 24.533893,24.466154 44.960397 0 0 0.0039,0.008 24.533893,24.466154 44.960397 0 0 0.0039,-0.01 24.5,24.5 0 0 0 0.0059,0 24.5,24.5 0 0 0 5.400391,6.43555 24.5,24.5 0 0 1 0.002,0.002 24.5,24.5 0 0 0 0.628906,0.48047 24.5,24.5 0 0 0 1.28711,0.98242 24.5,24.5 0 0 0 13.667968,4.32227 24.5,24.5 0 0 0 -20.953125,12.14062 24.533893,24.466154 44.960397 0 0 -0.06641,-24.35351 24.533893,24.466154 44.960397 0 0 0.01172,24.44531 24.5,24.5 0 0 0 -0.0059,0.008 24.5,24.5 0 0 0 20.960935,12.23828 24.5,24.5 0 0 0 -20.996092,12.23828 24.5,24.5 0 0 0 0.05273,-0.002 24.5,24.5 0 0 0 -0.0078,0.0137 24.5,24.5 0 0 0 -0.04492,-0.002 24.5,24.5 0 0 0 20.787112,12.22851 24.5,24.5 0 0 0 -20.787112,12.22852 24.5,24.5 0 0 0 21.140632,-12.21094 24.5,24.5 0 0 1 0.002,0 24.466154,24.533893 45.039603 0 0 -0.60547,1.1875 49.051804,48.795193 0 0 0 0.67383,-1.09375 24.466154,24.533893 45.039603 0 0 -0.0488,-0.0918 24.5,24.5 0 0 1 0.002,0 24.5,24.5 0 0 0 -0.0117,-0.0195 24.5,24.5 0 0 0 0.0117,-0.0195 24.5,24.5 0 0 0 -0.0234,0.002 24.5,24.5 0 0 0 -20.953132,-12.20118 24.5,24.5 0 0 0 21.011722,-12.24023 24.5,24.5 0 0 0 -0.0527,0.002 24.5,24.5 0 0 0 0.008,-0.0117 24.5,24.5 0 0 0 0.0449,0.002 24.5,24.5 0 0 0 -21.1543,-12.24805 24.5,24.5 0 0 0 21.14453,-12.23242 24.5,24.5 0 0 0 0.0469,0.002 24.5,24.5 0 0 0 -5.42969,-6.48047 24.5,24.5 0 0 0 -1.28125,-0.97851 24.5,24.5 0 0 0 -0.6289,-0.48047 24.5,24.5 0 0 0 -13.427742,-4.31446 24.5,24.5 0 0 0 8.542969,-1.74218 49.051804,48.795193 0 0 0 -4.972656,-3.38477 24.5,24.5 0 0 0 -3.873047,4.9375 24.533893,24.466154 44.960397 0 0 2.318359,-5.88672 49.051804,48.795193 0 0 0 -5.410156,-2.49804 z m 24.16211,20.82812 a 24.533893,24.466154 44.960397 0 0 0.0215,-0.0449 49.051804,48.795193 0 0 0 -0.35351,-0.61328 24.533893,24.466154 44.960397 0 0 0.33203,0.6582 z m 0,0 a 24.466154,24.533893 45.039603 0 0 -0.01,0.0176 24.533893,24.466154 44.960397 0 0 -0.006,-0.01 24.533893,24.466154 44.960397 0 0 -0.16015,0.3125 24.466154,24.533893 45.039603 0 0 -0.54297,1.0625 24.533893,24.466154 44.960397 0 0 -0.68555,1.50586 24.466154,24.533893 45.039603 0 0 -0.27344,0.70313 24.533893,24.466154 44.960397 0 0 -0.54101,1.58984 24.466154,24.533893 45.039603 0 0 -0.2207,0.79102 24.533893,24.466154 44.960397 0 0 -0.35352,1.51953 24.466154,24.533893 45.039603 0 0 -0.16406,0.94531 24.533893,24.466154 44.960397 0 0 -0.18555,1.43555 24.466154,24.533893 45.039603 0 0 -0.0762,1.06836 24.533893,24.466154 44.960397 0 0 -0.0371,1.28906 24.466154,24.533893 45.039603 0 0 0.0371,1.28906 24.533893,24.466154 44.960397 0 0 0.0762,1.06446 24.466154,24.533893 45.039603 0 0 0.18555,1.43945 24.533893,24.466154 44.960397 0 0 0.16406,0.94531 24.466154,24.533893 45.039603 0 0 0.35352,1.51563 24.533893,24.466154 44.960397 0 0 0.22265,0.80078 24.466154,24.533893 45.039603 0 0 0.53321,1.56836 24.533893,24.466154 44.960397 0 0 0.28515,0.72851 24.466154,24.533893 45.039603 0 0 0.68164,1.49805 24.533893,24.466154 44.960397 0 0 0.5293,1.03516 24.466154,24.533893 45.039603 0 0 0.17187,0.33789 24.466154,24.533893 45.039603 0 0 0.006,-0.0117 24.533893,24.466154 44.960397 0 0 0.01,0.0176 24.533893,24.466154 44.960397 0 0 0.29102,-0.56836 24.466154,24.533893 45.039603 0 0 0.33203,-0.65235 24.533893,24.466154 44.960397 0 0 0.80468,-1.76172 24.466154,24.533893 45.039603 0 0 0.19922,-0.50976 24.533893,24.466154 44.960397 0 0 0.59766,-1.75781 24.466154,24.533893 45.039603 0 0 0.17969,-0.64649 24.533893,24.466154 44.960397 0 0 0.38281,-1.64258 24.466154,24.533893 45.039603 0 0 0.14844,-0.85156 24.533893,24.466154 44.960397 0 0 0.1914,-1.49805 24.466154,24.533893 45.039603 0 0 0.0762,-1.0664 24.533893,24.466154 44.960397 0 0 0.0352,-1.24805 24.466154,24.533893 45.039603 0 0 -0.0371,-1.34375 24.533893,24.466154 44.960397 0 0 -0.0723,-1.01172 24.466154,24.533893 45.039603 0 0 -0.19532,-1.50976 24.533893,24.466154 44.960397 0 0 -0.14648,-0.85157 24.466154,24.533893 45.039603 0 0 -0.38281,-1.64257 24.533893,24.466154 44.960397 0 0 -0.17969,-0.64649 24.466154,24.533893 45.039603 0 0 -0.59766,-1.75781 24.533893,24.466154 44.960397 0 0 -0.19922,-0.50977 24.466154,24.533893 45.039603 0 0 -0.80468,-1.76172 24.533893,24.466154 44.960397 0 0 -0.32618,-0.64062 24.466154,24.533893 45.039603 0 0 -0.29687,-0.58008 z M 45.75,181.73633 a 24.533893,24.466154 44.960397 0 0 0.03125,0.0566 24.5,24.5 0 0 0 -0.0059,0.008 24.5,24.5 0 0 0 -0.03125,-0.0527 24.466154,24.533893 45.039603 0 0 0.0059,-0.0117 z m 63.66016,12.31445 a 24.5,24.5 0 0 0 -0.002,0.004 24.5,24.5 0 0 0 0.002,0 24.5,24.5 0 0 0 -0.0215,0.0352 24.5,24.5 0 0 0 0.0332,-0.002 24.5,24.5 0 0 0 0.0898,0.13867 49.051804,48.795193 0 0 0 -0.10156,-0.17578 z m -63.751957,12.27344 a 24.5,24.5 0 0 0 0.04687,0.002 24.466154,24.533893 45.039603 0 0 -0.02344,24.39258 24.5,24.5 0 0 0 -0.0039,0 24.5,24.5 0 0 0 -21.078125,-12.20508 24.533893,24.466154 44.960397 0 0 0.002,-0.006 24.5,24.5 0 0 0 0.04492,0.002 24.5,24.5 0 0 0 -0.0098,-0.0156 24.5,24.5 0 0 0 21.021484,-12.16992 z m 0.07031,0.004 a 24.5,24.5 0 0 0 0.0059,0 24.5,24.5 0 0 0 18.708984,12.10352 24.5,24.5 0 0 0 2.212891,0.11719 24.5,24.5 0 0 0 -20.908203,12.23047 24.5,24.5 0 0 0 -0.02344,-0.002 24.5,24.5 0 0 0 0.01172,0.0195 24.5,24.5 0 0 0 -0.0039,0.006 24.466154,24.533893 45.039603 0 0 -0.01563,-0.0332 24.466154,24.533893 45.039603 0 0 -0.880859,1.74219 24.533893,24.466154 44.960397 0 0 -0.410157,0.90039 24.466154,24.533893 45.039603 0 0 -0.496093,1.26562 24.533893,24.466154 44.960397 0 0 -0.369141,1.08985 24.466154,24.533893 45.039603 0 0 -0.339844,1.21484 24.533893,24.466154 44.960397 0 0 -0.269531,1.16211 24.466154,24.533893 45.039603 0 0 -0.210938,1.21289 24.533893,24.466154 44.960397 0 0 -0.158203,1.23633 24.466154,24.533893 45.039603 0 0 -0.08594,1.18359 24.533893,24.466154 44.960397 0 0 -0.03516,1.24219 24.466154,24.533893 45.039603 0 0 0.03516,1.24414 24.533893,24.466154 44.960397 0 0 0.08594,1.18164 24.466154,24.533893 45.039603 0 0 0.158203,1.23633 24.533893,24.466154 44.960397 0 0 0.210938,1.21289 24.466154,24.533893 45.039603 0 0 0.271484,1.16602 24.533893,24.466154 44.960397 0 0 0.335938,1.20312 24.466154,24.533893 45.039603 0 0 0.376953,1.11133 24.533893,24.466154 44.960397 0 0 0.486328,1.24414 24.466154,24.533893 45.039603 0 0 0.414063,0.91211 24.533893,24.466154 44.960397 0 0 0.763671,1.52539 24.5,24.5 0 0 0 -20.453125,-12.05078 24.5,24.5 0 0 0 20.533204,-12.21484 24.5,24.5 0 0 0 -0.02344,0.002 24.5,24.5 0 0 0 0.0059,-0.01 24.5,24.5 0 0 0 0.01758,0 24.5,24.5 0 0 0 -0.0098,-0.0156 24.5,24.5 0 0 0 0.0078,-0.0117 24.5,24.5 0 0 0 0.02344,0.002 24.466154,24.533893 45.039603 0 0 0.02734,-24.42969 z m 69.820317,5.20899 a 24.5,24.5 0 0 0 -6.14063,7.02344 24.5,24.5 0 0 0 6.66211,-0.96094 49.051804,48.795193 0 0 0 -0.52148,-6.0625 z m -91.031255,6.9668 a 24.5,24.5 0 0 0 0.02734,0.002 24.533893,24.466154 44.960397 0 0 0.002,0.004 24.5,24.5 0 0 0 -0.0098,0 24.5,24.5 0 0 0 0.01563,0.0273 24.5,24.5 0 0 0 -0.01953,-0.002 24.466154,24.533893 45.039603 0 0 -0.01563,-0.0312 z m -0.04492,0.006 a 24.5,24.5 0 0 0 -6.441406,0.9082 49.051804,48.795193 0 0 0 0.503906,5.94531 24.5,24.5 0 0 0 5.9375,-6.85351 z m 84.935545,0.0586 a 24.5,24.5 0 0 0 0.0156,0.0273 24.5,24.5 0 0 0 -0.0352,-0.002 24.5,24.5 0 0 0 6.13281,7.0332 49.051804,48.795193 0 0 0 0.53321,-6.09765 24.5,24.5 0 0 0 -6.64649,-0.96094 z m -0.043,0.0254 a 24.533893,24.466154 44.960397 0 0 0.0156,24.45313 24.533893,24.466154 44.960397 0 0 -0.0156,-24.45313 z m -42.406247,0.0176 a 24.5,24.5 0 0 0 7.302735,7.87305 24.5,24.5 0 0 0 11.410156,4.20507 24.5,24.5 0 0 0 2.072266,0.10743 24.5,24.5 0 0 0 -11.394532,3.01953 24.5,24.5 0 0 0 -0.0098,0.006 24.5,24.5 0 0 0 -2.046875,1.26367 24.5,24.5 0 0 0 -7.310547,7.85156 24.533893,24.466154 44.960397 0 0 1.05664,-2.06836 24.533893,24.466154 44.960397 0 0 1.167969,-3.2793 24.466154,24.533893 45.039603 0 0 0.07031,-0.25 24.533893,24.466154 44.960397 0 0 0.464844,-2.01172 24.466154,24.533893 45.039603 0 0 0.0957,-0.54492 24.533893,24.466154 44.960397 0 0 0.21875,-1.69726 24.466154,24.533893 45.039603 0 0 0.07031,-0.97071 24.533893,24.466154 44.960397 0 0 0.03711,-1.31835 24.466154,24.533893 45.039603 0 0 -0.03711,-1.31641 24.533893,24.466154 44.960397 0 0 -0.07031,-0.97266 24.466154,24.533893 45.039603 0 0 -0.21875,-1.69726 24.533893,24.466154 44.960397 0 0 -0.0957,-0.54493 24.466154,24.533893 45.039603 0 0 -0.464844,-2.00781 24.533893,24.466154 44.960397 0 0 -0.07227,-0.25976 24.466154,24.533893 45.039603 0 0 -0.75,-2.20508 24.533893,24.466154 44.960397 0 0 -0.002,-0.004 24.466154,24.533893 45.039603 0 0 -1.494141,-3.17773 z m 21.134766,12.20312 a 24.5,24.5 0 0 1 0.002,0 24.466154,24.533893 45.039603 0 0 -0.84375,1.66797 24.533893,24.466154 44.960397 0 0 -0.433594,0.95117 24.466154,24.533893 45.039603 0 0 -0.49414,1.26563 24.533893,24.466154 44.960397 0 0 -0.359375,1.05859 24.466154,24.533893 45.039603 0 0 -0.345703,1.24024 24.533893,24.466154 44.960397 0 0 -0.267579,1.14648 24.466154,24.533893 45.039603 0 0 -0.216796,1.25195 24.533893,24.466154 44.960397 0 0 -0.150391,1.16993 24.466154,24.533893 45.039603 0 0 -0.08984,1.24804 24.533893,24.466154 44.960397 0 0 -0.0332,1.21289 24.466154,24.533893 45.039603 0 0 0.0332,1.21094 24.533893,24.466154 44.960397 0 0 0.08984,1.25 24.466154,24.533893 45.039603 0 0 0.150391,1.16992 24.533893,24.466154 44.960397 0 0 0.216796,1.25196 24.466154,24.533893 45.039603 0 0 0.265626,1.14257 24.533893,24.466154 44.960397 0 0 0.349609,1.25196 24.466154,24.533893 45.039603 0 0 0.351562,1.03515 24.533893,24.466154 44.960397 0 0 0.50586,1.29297 24.466154,24.533893 45.039603 0 0 0.421875,0.92578 24.533893,24.466154 44.960397 0 0 0.861328,1.69922 24.5,24.5 0 0 0 -0.0059,0 24.5,24.5 0 0 0 -5.414062,-6.45508 24.5,24.5 0 0 0 -1.910156,-1.45898 24.5,24.5 0 0 0 -0.0059,-0.004 24.5,24.5 0 0 0 -13.480468,-4.3125 24.5,24.5 0 0 0 11.40039,-3.02539 24.5,24.5 0 0 0 9.402344,-9.1875 z m -21.185547,12.2461 a 24.533893,24.466154 44.960397 0 0 -0.08594,24.25976 49.051804,48.795193 0 0 0 0.195312,0.01 24.533893,24.466154 44.960397 0 0 -0.109375,-24.26953 z m -21.228515,12.19726 a 24.5,24.5 0 0 0 -8.794922,1.68164 49.051804,48.795193 0 0 0 4.910156,3.35938 24.5,24.5 0 0 0 3.884766,-5.04102 z m 0.02148,0.0254 a 24.533893,24.466154 44.960397 0 0 -2.285156,5.46485 24.466154,24.533893 45.039603 0 0 -0.06445,0.23242 24.533893,24.466154 44.960397 0 0 -0.05469,0.23437 49.051804,48.795193 0 0 0 5.357422,2.52149 24.533893,24.466154 44.960397 0 0 -0.1875,-1.08008 24.466154,24.533893 45.039603 0 0 -0.269531,-1.15625 24.533893,24.466154 44.960397 0 0 -0.339844,-1.22266 24.466154,24.533893 45.039603 0 0 -0.369141,-1.08789 24.533893,24.466154 44.960397 0 0 -0.492187,-1.25781 24.466154,24.533893 45.039603 0 0 -0.423828,-0.92773 24.533893,24.466154 44.960397 0 0 -0.871095,-1.72071 z"
           id="path1190" />
        <ellipse
           style="opacity:1;vector-effect:none;fill:none;fill-opacity:1;fill-rule:evenodd;stroke:#003100;stroke-width:0.26456693;stroke-linecap:butt;stroke-linejoin:miter;stroke-miterlimit:4;stroke-dasharray:none;stroke-dashoffset:0;stroke-opacity:1"
           id="ellipse1192"
           cx="66.951172"
           cy="218.53615"
           rx="48.919922"
           ry="48.790695" />
      </g>
      <g
         id="g1171"
         transform="translate(58,-2)"
         style="fill:none">
        <path
           id="path837"
           d="m 67.041016,169.74219 a 49.051804,48.795193 0 0 0 -0.158204,0.006 24.466154,24.533893 45.039603 0 0 0.0625,24.29883 24.466154,24.533893 45.039603 0 0 0.0957,-24.30469 z m 0.05469,0.002 a 24.5,24.5 0 0 0 21.056641,12.08008 24.5,24.5 0 0 0 -17.263672,-11.89063 49.051804,48.795193 0 0 0 -3.792969,-0.18945 z m 21.056641,12.08008 a 24.5,24.5 0 0 0 -21.164063,12.24805 24.5,24.5 0 0 0 0.0059,0 24.5,24.5 0 0 0 -0.0059,0.01 24.5,24.5 0 0 0 21.164063,-12.24805 24.5,24.5 0 0 0 -0.0059,0 24.5,24.5 0 0 0 0.0059,-0.01 z m -21.164063,12.25781 a 24.5,24.5 0 0 0 20.976563,12.23828 24.5,24.5 0 0 0 -20.958985,12.15039 24.533893,24.466154 44.960397 0 0 3.001953,-15.10351 24.466154,24.533893 45.039603 0 0 -0.01758,-0.13477 24.533893,24.466154 44.960397 0 0 -0.371093,-2.14062 24.466154,24.533893 45.039603 0 0 -0.101563,-0.44336 24.533893,24.466154 44.960397 0 0 -0.505859,-1.80664 24.466154,24.533893 45.039603 0 0 -0.228516,-0.67188 24.533893,24.466154 44.960397 0 0 -0.59375,-1.52344 24.466154,24.533893 45.039603 0 0 -0.378906,-0.83203 24.533893,24.466154 44.960397 0 0 -0.865235,-1.70703 24.533893,24.466154 44.960397 0 0 -0.0039,0.006 24.466154,24.533893 45.039603 0 0 -0.01563,-0.0312 24.466154,24.533893 45.039603 0 0 -1.085937,2.1875 24.533893,24.466154 44.960397 0 0 -0.01367,0.0293 24.466154,24.533893 45.039603 0 0 -0.876953,2.24414 24.533893,24.466154 44.960397 0 0 -0.01367,0.0391 24.466154,24.533893 45.039603 0 0 1.972656,19.95313 24.466154,24.533893 45.039603 0 0 0.01953,-0.0352 24.533893,24.466154 44.960397 0 0 0.02344,0.043 24.5,24.5 0 0 0 -0.03516,-0.002 24.5,24.5 0 0 0 0.0059,0.0117 24.466154,24.533893 45.039603 0 0 -0.867187,1.71289 24.533893,24.466154 44.960397 0 0 -0.421876,0.92579 24.533893,24.466154 44.960397 0 0 -0.0059,0.0117 24.466154,24.533893 45.039603 0 0 -0.5,1.28126 24.533893,24.466154 44.960397 0 0 -0.351562,1.03515 24.466154,24.533893 45.039603 0 0 -0.34961,1.25195 24.533893,24.466154 44.960397 0 0 -0.265625,1.14258 24.466154,24.533893 45.039603 0 0 -0.216797,1.25196 24.533893,24.466154 44.960397 0 0 -0.15039,1.16992 24.466154,24.533893 45.039603 0 0 -0.08984,1.25 24.533893,24.466154 44.960397 0 0 -0.04883,0.67773 24.533893,24.466154 44.960397 0 0 0.01563,0.54688 24.466154,24.533893 45.039603 0 0 0.0332,1.19922 24.533893,24.466154 44.960397 0 0 0.08984,1.24804 24.466154,24.533893 45.039603 0 0 0.15039,1.16992 24.533893,24.466154 44.960397 0 0 0.216797,1.25196 24.466154,24.533893 45.039603 0 0 0.267578,1.14648 24.533893,24.466154 44.960397 0 0 0.345704,1.24024 24.533893,24.466154 44.960397 0 0 0.002,0.004 24.466154,24.533893 45.039603 0 0 0.357421,1.05469 24.533893,24.466154 44.960397 0 0 0.494141,1.26562 24.533893,24.466154 44.960397 0 0 0.002,0.006 24.466154,24.533893 45.039603 0 0 0.431641,0.94532 24.533893,24.466154 44.960397 0 0 0.839844,1.6582 24.5,24.5 0 0 0 -0.01563,0.002 24.5,24.5 0 0 0 -5.388672,-6.42968 24.5,24.5 0 0 0 -1.927735,-1.47266 24.5,24.5 0 0 0 -0.0078,-0.006 24.5,24.5 0 0 0 -13.453125,-4.29687 24.5,24.5 0 0 0 2.0625,-0.10743 24.5,24.5 0 0 0 18.166016,-11.21289 24.5,24.5 0 0 0 0.572265,-0.9414 24.5,24.5 0 0 0 -0.0332,0.002 24.5,24.5 0 0 0 -20.962891,-12.21484 24.5,24.5 0 0 0 21.013672,-12.24024 24.5,24.5 0 0 0 -21.154297,12.23242 24.5,24.5 0 0 0 -0.01563,0 24.5,24.5 0 0 0 -0.01172,-0.0195 24.533893,24.466154 44.960397 0 0 -0.01367,-24.41211 24.5,24.5 0 0 0 0.0332,-0.0547 24.5,24.5 0 0 0 0.0039,0.006 24.5,24.5 0 0 0 -0.0059,0 24.5,24.5 0 0 0 21.164062,12.24805 24.5,24.5 0 0 0 -0.0059,-0.01 24.5,24.5 0 0 0 0.0059,0 24.5,24.5 0 0 0 -21.160156,-12.24805 24.5,24.5 0 0 0 21.054687,-12.07422 49.051804,48.795193 0 0 0 -3.871093,0.18945 24.5,24.5 0 0 0 -17.072266,11.69532 24.533893,24.466154 44.960397 0 0 2.855469,-8.33204 49.051804,48.795193 0 0 0 -5.402344,2.58789 24.466154,24.533893 45.039603 0 0 2.082031,5.31055 24.5,24.5 0 0 0 -3.566406,-4.46289 49.051804,48.795193 0 0 0 -5,3.375 24.5,24.5 0 0 0 8.851563,1.71094 24.5,24.5 0 0 0 -0.01367,-0.0234 24.5,24.5 0 0 0 0.08984,0.006 24.5,24.5 0 0 0 -0.01172,0.0176 24.5,24.5 0 0 0 -2.484375,0.13476 24.5,24.5 0 0 0 -17.22461,9.86329 49.051804,48.795193 0 0 0 -1.388672,2.25195 24.5,24.5 0 0 0 2.384766,-0.12891 24.5,24.5 0 0 0 18.521484,-11.79883 24.533893,24.466154 44.960397 0 0 -0.01758,23.83399 24.5,24.5 0 0 0 -20.894531,-11.89844 49.051804,48.795193 0 0 0 -0.02734,0.0449 24.5,24.5 0 0 0 20.355469,12.16211 24.5,24.5 0 0 0 -20.021484,11.50782 24.533893,24.466154 44.960397 0 0 1.58789,-19.16797 24.466154,24.533893 45.039603 0 0 -0.111328,-0.33008 24.533893,24.466154 44.960397 0 0 -0.68164,-1.74805 24.466154,24.533893 45.039603 0 0 -0.347657,-0.76367 24.533893,24.466154 44.960397 0 0 -0.814453,-1.60547 49.051804,48.795193 0 0 0 -1.664062,3.16992 24.466154,24.533893 45.039603 0 0 0.978515,19.99024 24.5,24.5 0 0 0 -5.34375,-5.80078 49.051804,48.795193 0 0 0 -0.521484,6.05468 24.5,24.5 0 0 0 4.146484,0.78516 24.5,24.5 0 0 0 0.0078,0.002 24.5,24.5 0 0 0 2.271484,0.11719 24.5,24.5 0 0 0 0.0293,0.002 24.466154,24.533893 45.039603 0 0 -0.865234,1.70703 24.533893,24.466154 44.960397 0 0 -0.419922,0.92188 24.466154,24.533893 45.039603 0 0 -0.505859,1.29297 24.533893,24.466154 44.960397 0 0 -0.34961,1.0332 24.466154,24.533893 45.039603 0 0 -0.351562,1.25977 24.533893,24.466154 44.960397 0 0 -0.265625,1.13867 24.466154,24.533893 45.039603 0 0 -0.216797,1.25195 24.533893,24.466154 44.960397 0 0 -0.150391,1.16992 24.466154,24.533893 45.039603 0 0 -0.08984,1.24805 24.533893,24.466154 44.960397 0 0 -0.0332,1.21289 24.466154,24.533893 45.039603 0 0 0.0332,1.20899 24.533893,24.466154 44.960397 0 0 0.08984,1.2539 24.466154,24.533893 45.039603 0 0 0.150391,1.16016 24.533893,24.466154 44.960397 0 0 0.21875,1.26562 24.466154,24.533893 45.039603 0 0 0.261718,1.12891 24.533893,24.466154 44.960397 0 0 0.353516,1.26172 24.466154,24.533893 45.039603 0 0 0.34961,1.0332 24.533893,24.466154 44.960397 0 0 0.505859,1.29297 24.466154,24.533893 45.039603 0 0 0.251953,0.55273 49.051804,48.795193 0 0 0 1.119141,1.93946 24.533893,24.466154 44.960397 0 0 1.451171,-3.09375 24.466154,24.533893 45.039603 0 0 0.002,-0.004 24.533893,24.466154 44.960397 0 0 0.746093,-2.19726 24.466154,24.533893 45.039603 0 0 0.07617,-0.27149 24.533893,24.466154 44.960397 0 0 0.462891,-1.99414 24.466154,24.533893 45.039603 0 0 0.0957,-0.55859 24.533893,24.466154 44.960397 0 0 0.21875,-1.69141 24.466154,24.533893 45.039603 0 0 0.07031,-0.9707 24.533893,24.466154 44.960397 0 0 0.03711,-1.31641 24.466154,24.533893 45.039603 0 0 -0.03711,-1.31836 24.533893,24.466154 44.960397 0 0 -0.07031,-0.9707 24.466154,24.533893 45.039603 0 0 -0.21875,-1.69727 24.533893,24.466154 44.960397 0 0 -0.0957,-0.54492 24.466154,24.533893 45.039603 0 0 -0.462891,-2.00391 24.533893,24.466154 44.960397 0 0 -0.07617,-0.26953 24.466154,24.533893 45.039603 0 0 -0.748047,-2.20117 24.533893,24.466154 44.960397 0 0 -0.002,-0.004 24.466154,24.533893 45.039603 0 0 -1.408203,-3.00782 24.5,24.5 0 0 0 20.4375,12.0293 24.5,24.5 0 0 0 -20.466797,12.10938 49.051804,48.795193 0 0 0 1.697266,2.76367 24.5,24.5 0 0 0 19.382813,9.625 24.5,24.5 0 0 0 -0.01563,-0.0274 24.5,24.5 0 0 0 0.02734,0.002 24.533893,24.466154 44.960397 0 0 0.02539,0.0469 24.533893,24.466154 44.960397 0 0 2.287109,-5.47461 24.466154,24.533893 45.039603 0 0 0.06055,-0.21484 24.533893,24.466154 44.960397 0 0 0.466797,-2.01172 24.466154,24.533893 45.039603 0 0 0.09961,-0.57422 24.533893,24.466154 44.960397 0 0 0.220703,-1.71484 24.466154,24.533893 45.039603 0 0 0.06641,-0.90625 24.533893,24.466154 44.960397 0 0 0.03711,-1.35352 24.466154,24.533893 45.039603 0 0 -0.03711,-1.35156 24.533893,24.466154 44.960397 0 0 -0.06641,-0.9082 24.466154,24.533893 45.039603 0 0 -0.220703,-1.71485 24.533893,24.466154 44.960397 0 0 -0.09961,-0.57422 24.466154,24.533893 45.039603 0 0 -0.466797,-2.00586 24.533893,24.466154 44.960397 0 0 -0.0625,-0.22461 24.466154,24.533893 45.039603 0 0 -2.261719,-5.42382 24.5,24.5 0 0 0 0.0078,0 24.5,24.5 0 0 0 7.324219,7.90625 24.5,24.5 0 0 0 13.46289,4.29687 24.5,24.5 0 0 0 -20.791015,12.22852 24.5,24.5 0 0 0 0.002,0 24.5,24.5 0 0 0 -0.02148,0.0351 24.5,24.5 0 0 0 0.0332,-0.002 24.5,24.5 0 0 0 16.994141,11.83594 49.051804,48.795193 0 0 0 4.035156,0.20117 24.5,24.5 0 0 0 -20.810547,-12.04883 24.5,24.5 0 0 0 20.910157,-12.23242 24.5,24.5 0 0 0 0.02148,0.002 24.5,24.5 0 0 0 -0.01172,-0.0176 24.5,24.5 0 0 0 0.0078,-0.0137 24.533893,24.466154 44.960397 0 0 0.01758,0.0312 24.5,24.5 0 0 0 -0.0059,0.008 24.5,24.5 0 0 0 0.02148,-0.002 24.5,24.5 0 0 0 7.337891,7.91406 24.5,24.5 0 0 0 13.638671,4.3125 24.5,24.5 0 0 0 -20.886718,12.0586 49.051804,48.795193 0 0 0 0.02539,0.002 49.051804,48.795193 0 0 0 3.353516,-0.11719 24.5,24.5 0 0 0 17.664062,-11.93359 24.5,24.5 0 0 0 0.02539,0 24.466154,24.533893 45.039603 0 0 -0.849609,1.67969 24.533893,24.466154 44.960397 0 0 -0.421875,0.92578 24.466154,24.533893 45.039603 0 0 -0.50586,1.29297 24.533893,24.466154 44.960397 0 0 -0.351562,1.03515 24.466154,24.533893 45.039603 0 0 -0.349609,1.25196 24.533893,24.466154 44.960397 0 0 -0.265626,1.14258 24.466154,24.533893 45.039603 0 0 -0.216796,1.25195 24.533893,24.466154 44.960397 0 0 -0.002,0.0176 49.051804,48.795193 0 0 0 5.417969,-2.56836 24.466154,24.533893 45.039603 0 0 -0.08203,-0.35743 24.533893,24.466154 44.960397 0 0 -0.07227,-0.25976 24.466154,24.533893 45.039603 0 0 -0.75,-2.20508 24.533893,24.466154 44.960397 0 0 -0.002,-0.004 24.466154,24.533893 45.039603 0 0 -1.365234,-2.92383 24.5,24.5 0 0 0 3.84375,4.85351 49.051804,48.795193 0 0 0 5.03125,-3.37695 24.5,24.5 0 0 0 -4.191406,-1.28125 24.5,24.5 0 0 0 -4.835938,-0.49609 24.533893,24.466154 44.960397 0 0 1.519531,-3.22852 24.466154,24.533893 45.039603 0 0 0.002,-0.004 24.533893,24.466154 44.960397 0 0 0.748046,-2.20117 24.466154,24.533893 45.039603 0 0 0.07227,-0.25976 24.533893,24.466154 44.960397 0 0 0.464844,-2.00782 24.466154,24.533893 45.039603 0 0 0.0957,-0.54492 24.533893,24.466154 44.960397 0 0 0.21875,-1.69726 24.466154,24.533893 45.039603 0 0 0.07031,-0.97266 24.533893,24.466154 44.960397 0 0 0.03711,-1.31641 24.466154,24.533893 45.039603 0 0 -0.03711,-1.31836 24.533893,24.466154 44.960397 0 0 -0.07031,-0.9707 24.466154,24.533893 45.039603 0 0 -0.21875,-1.69726 24.533893,24.466154 44.960397 0 0 -0.0957,-0.54493 24.466154,24.533893 45.039603 0 0 -0.464844,-2.01171 24.533893,24.466154 44.960397 0 0 -0.07031,-0.25 24.466154,24.533893 45.039603 0 0 -2.28125,-5.45704 24.5,24.5 0 0 0 -0.02344,0.002 24.5,24.5 0 0 0 -0.548828,-0.9043 24.5,24.5 0 0 0 -4.857422,-5.53906 24.5,24.5 0 0 0 -0.273438,-0.20703 24.5,24.5 0 0 0 -1.65625,-1.26368 24.5,24.5 0 0 1 -0.002,-0.002 24.5,24.5 0 0 0 -13.636718,-4.31055 24.5,24.5 0 0 0 20.986328,-12.2207 24.466154,24.533893 45.039603 0 0 -0.0059,24.43164 24.466154,24.533893 45.039603 0 0 0.02539,-24.43555 24.5,24.5 0 0 0 0.02734,0.002 24.5,24.5 0 0 0 -21.164063,-12.24805 z M 85.21875,173.25391 a 24.466154,24.533893 45.039603 0 0 0.01563,0.12695 24.533893,24.466154 44.960397 0 0 0.177734,1.01758 24.466154,24.533893 45.039603 0 0 0.302735,1.30664 24.533893,24.466154 44.960397 0 0 0.308594,1.10937 24.466154,24.533893 45.039603 0 0 0.404296,1.18946 24.533893,24.466154 44.960397 0 0 0.455078,1.16211 24.466154,24.533893 45.039603 0 0 0.447266,0.98046 24.533893,24.466154 44.960397 0 0 0.857422,1.69336 24.5,24.5 0 0 0 -0.0078,0.0117 24.5,24.5 0 0 0 0.01367,0 24.533893,24.466154 44.960397 0 0 0.0039,0.008 24.533893,24.466154 44.960397 0 0 0.0039,-0.01 24.5,24.5 0 0 0 0.0059,0 24.5,24.5 0 0 0 5.400391,6.43555 24.5,24.5 0 0 1 0.002,0.002 24.5,24.5 0 0 0 0.628906,0.48047 24.5,24.5 0 0 0 1.28711,0.98242 24.5,24.5 0 0 0 13.667968,4.32227 24.5,24.5 0 0 0 -20.953125,12.14062 24.533893,24.466154 44.960397 0 0 -0.06641,-24.35351 24.533893,24.466154 44.960397 0 0 0.01172,24.44531 24.5,24.5 0 0 0 -0.0059,0.008 24.5,24.5 0 0 0 20.960935,12.23828 24.5,24.5 0 0 0 -20.996092,12.23828 24.5,24.5 0 0 0 0.05273,-0.002 24.5,24.5 0 0 0 -0.0078,0.0137 24.5,24.5 0 0 0 -0.04492,-0.002 24.5,24.5 0 0 0 20.787112,12.22851 24.5,24.5 0 0 0 -20.787112,12.22852 24.5,24.5 0 0 0 21.140632,-12.21094 24.5,24.5 0 0 1 0.002,0 24.466154,24.533893 45.039603 0 0 -0.60547,1.1875 49.051804,48.795193 0 0 0 0.67383,-1.09375 24.466154,24.533893 45.039603 0 0 -0.0488,-0.0918 24.5,24.5 0 0 1 0.002,0 24.5,24.5 0 0 0 -0.0117,-0.0195 24.5,24.5 0 0 0 0.0117,-0.0195 24.5,24.5 0 0 0 -0.0234,0.002 24.5,24.5 0 0 0 -20.953132,-12.20118 24.5,24.5 0 0 0 21.011722,-12.24023 24.5,24.5 0 0 0 -0.0527,0.002 24.5,24.5 0 0 0 0.008,-0.0117 24.5,24.5 0 0 0 0.0449,0.002 24.5,24.5 0 0 0 -21.1543,-12.24805 24.5,24.5 0 0 0 21.14453,-12.23242 24.5,24.5 0 0 0 0.0469,0.002 24.5,24.5 0 0 0 -5.42969,-6.48047 24.5,24.5 0 0 0 -1.28125,-0.97851 24.5,24.5 0 0 0 -0.6289,-0.48047 24.5,24.5 0 0 0 -13.427742,-4.31446 24.5,24.5 0 0 0 8.542969,-1.74218 49.051804,48.795193 0 0 0 -4.972656,-3.38477 24.5,24.5 0 0 0 -3.873047,4.9375 24.533893,24.466154 44.960397 0 0 2.318359,-5.88672 49.051804,48.795193 0 0 0 -5.410156,-2.49804 z m 24.16211,20.82812 a 24.533893,24.466154 44.960397 0 0 0.0215,-0.0449 49.051804,48.795193 0 0 0 -0.35351,-0.61328 24.533893,24.466154 44.960397 0 0 0.33203,0.6582 z m 0,0 a 24.466154,24.533893 45.039603 0 0 -0.01,0.0176 24.533893,24.466154 44.960397 0 0 -0.006,-0.01 24.533893,24.466154 44.960397 0 0 -0.16015,0.3125 24.466154,24.533893 45.039603 0 0 -0.54297,1.0625 24.533893,24.466154 44.960397 0 0 -0.68555,1.50586 24.466154,24.533893 45.039603 0 0 -0.27344,0.70313 24.533893,24.466154 44.960397 0 0 -0.54101,1.58984 24.466154,24.533893 45.039603 0 0 -0.2207,0.79102 24.533893,24.466154 44.960397 0 0 -0.35352,1.51953 24.466154,24.533893 45.039603 0 0 -0.16406,0.94531 24.533893,24.466154 44.960397 0 0 -0.18555,1.43555 24.466154,24.533893 45.039603 0 0 -0.0762,1.06836 24.533893,24.466154 44.960397 0 0 -0.0371,1.28906 24.466154,24.533893 45.039603 0 0 0.0371,1.28906 24.533893,24.466154 44.960397 0 0 0.0762,1.06446 24.466154,24.533893 45.039603 0 0 0.18555,1.43945 24.533893,24.466154 44.960397 0 0 0.16406,0.94531 24.466154,24.533893 45.039603 0 0 0.35352,1.51563 24.533893,24.466154 44.960397 0 0 0.22265,0.80078 24.466154,24.533893 45.039603 0 0 0.53321,1.56836 24.533893,24.466154 44.960397 0 0 0.28515,0.72851 24.466154,24.533893 45.039603 0 0 0.68164,1.49805 24.533893,24.466154 44.960397 0 0 0.5293,1.03516 24.466154,24.533893 45.039603 0 0 0.17187,0.33789 24.466154,24.533893 45.039603 0 0 0.006,-0.0117 24.533893,24.466154 44.960397 0 0 0.01,0.0176 24.533893,24.466154 44.960397 0 0 0.29102,-0.56836 24.466154,24.533893 45.039603 0 0 0.33203,-0.65235 24.533893,24.466154 44.960397 0 0 0.80468,-1.76172 24.466154,24.533893 45.039603 0 0 0.19922,-0.50976 24.533893,24.466154 44.960397 0 0 0.59766,-1.75781 24.466154,24.533893 45.039603 0 0 0.17969,-0.64649 24.533893,24.466154 44.960397 0 0 0.38281,-1.64258 24.466154,24.533893 45.039603 0 0 0.14844,-0.85156 24.533893,24.466154 44.960397 0 0 0.1914,-1.49805 24.466154,24.533893 45.039603 0 0 0.0762,-1.0664 24.533893,24.466154 44.960397 0 0 0.0352,-1.24805 24.466154,24.533893 45.039603 0 0 -0.0371,-1.34375 24.533893,24.466154 44.960397 0 0 -0.0723,-1.01172 24.466154,24.533893 45.039603 0 0 -0.19532,-1.50976 24.533893,24.466154 44.960397 0 0 -0.14648,-0.85157 24.466154,24.533893 45.039603 0 0 -0.38281,-1.64257 24.533893,24.466154 44.960397 0 0 -0.17969,-0.64649 24.466154,24.533893 45.039603 0 0 -0.59766,-1.75781 24.533893,24.466154 44.960397 0 0 -0.19922,-0.50977 24.466154,24.533893 45.039603 0 0 -0.80468,-1.76172 24.533893,24.466154 44.960397 0 0 -0.32618,-0.64062 24.466154,24.533893 45.039603 0 0 -0.29687,-0.58008 z M 45.75,181.73633 a 24.533893,24.466154 44.960397 0 0 0.03125,0.0566 24.5,24.5 0 0 0 -0.0059,0.008 24.5,24.5 0 0 0 -0.03125,-0.0527 24.466154,24.533893 45.039603 0 0 0.0059,-0.0117 z m 63.66016,12.31445 a 24.5,24.5 0 0 0 -0.002,0.004 24.5,24.5 0 0 0 0.002,0 24.5,24.5 0 0 0 -0.0215,0.0352 24.5,24.5 0 0 0 0.0332,-0.002 24.5,24.5 0 0 0 0.0898,0.13867 49.051804,48.795193 0 0 0 -0.10156,-0.17578 z m -63.751957,12.27344 a 24.5,24.5 0 0 0 0.04687,0.002 24.466154,24.533893 45.039603 0 0 -0.02344,24.39258 24.5,24.5 0 0 0 -0.0039,0 24.5,24.5 0 0 0 -21.078125,-12.20508 24.533893,24.466154 44.960397 0 0 0.002,-0.006 24.5,24.5 0 0 0 0.04492,0.002 24.5,24.5 0 0 0 -0.0098,-0.0156 24.5,24.5 0 0 0 21.021484,-12.16992 z m 0.07031,0.004 a 24.5,24.5 0 0 0 0.0059,0 24.5,24.5 0 0 0 18.708984,12.10352 24.5,24.5 0 0 0 2.212891,0.11719 24.5,24.5 0 0 0 -20.908203,12.23047 24.5,24.5 0 0 0 -0.02344,-0.002 24.5,24.5 0 0 0 0.01172,0.0195 24.5,24.5 0 0 0 -0.0039,0.006 24.466154,24.533893 45.039603 0 0 -0.01563,-0.0332 24.466154,24.533893 45.039603 0 0 -0.880859,1.74219 24.533893,24.466154 44.960397 0 0 -0.410157,0.90039 24.466154,24.533893 45.039603 0 0 -0.496093,1.26562 24.533893,24.466154 44.960397 0 0 -0.369141,1.08985 24.466154,24.533893 45.039603 0 0 -0.339844,1.21484 24.533893,24.466154 44.960397 0 0 -0.269531,1.16211 24.466154,24.533893 45.039603 0 0 -0.210938,1.21289 24.533893,24.466154 44.960397 0 0 -0.158203,1.23633 24.466154,24.533893 45.039603 0 0 -0.08594,1.18359 24.533893,24.466154 44.960397 0 0 -0.03516,1.24219 24.466154,24.533893 45.039603 0 0 0.03516,1.24414 24.533893,24.466154 44.960397 0 0 0.08594,1.18164 24.466154,24.533893 45.039603 0 0 0.158203,1.23633 24.533893,24.466154 44.960397 0 0 0.210938,1.21289 24.466154,24.533893 45.039603 0 0 0.271484,1.16602 24.533893,24.466154 44.960397 0 0 0.335938,1.20312 24.466154,24.533893 45.039603 0 0 0.376953,1.11133 24.533893,24.466154 44.960397 0 0 0.486328,1.24414 24.466154,24.533893 45.039603 0 0 0.414063,0.91211 24.533893,24.466154 44.960397 0 0 0.763671,1.52539 24.5,24.5 0 0 0 -20.453125,-12.05078 24.5,24.5 0 0 0 20.533204,-12.21484 24.5,24.5 0 0 0 -0.02344,0.002 24.5,24.5 0 0 0 0.0059,-0.01 24.5,24.5 0 0 0 0.01758,0 24.5,24.5 0 0 0 -0.0098,-0.0156 24.5,24.5 0 0 0 0.0078,-0.0117 24.5,24.5 0 0 0 0.02344,0.002 24.466154,24.533893 45.039603 0 0 0.02734,-24.42969 z m 69.820317,5.20899 a 24.5,24.5 0 0 0 -6.14063,7.02344 24.5,24.5 0 0 0 6.66211,-0.96094 49.051804,48.795193 0 0 0 -0.52148,-6.0625 z m -91.031255,6.9668 a 24.5,24.5 0 0 0 0.02734,0.002 24.533893,24.466154 44.960397 0 0 0.002,0.004 24.5,24.5 0 0 0 -0.0098,0 24.5,24.5 0 0 0 0.01563,0.0273 24.5,24.5 0 0 0 -0.01953,-0.002 24.466154,24.533893 45.039603 0 0 -0.01563,-0.0312 z m -0.04492,0.006 a 24.5,24.5 0 0 0 -6.441406,0.9082 49.051804,48.795193 0 0 0 0.503906,5.94531 24.5,24.5 0 0 0 5.9375,-6.85351 z m 84.935545,0.0586 a 24.5,24.5 0 0 0 0.0156,0.0273 24.5,24.5 0 0 0 -0.0352,-0.002 24.5,24.5 0 0 0 6.13281,7.0332 49.051804,48.795193 0 0 0 0.53321,-6.09765 24.5,24.5 0 0 0 -6.64649,-0.96094 z m -0.043,0.0254 a 24.533893,24.466154 44.960397 0 0 0.0156,24.45313 24.533893,24.466154 44.960397 0 0 -0.0156,-24.45313 z m -42.406247,0.0176 a 24.5,24.5 0 0 0 7.302735,7.87305 24.5,24.5 0 0 0 11.410156,4.20507 24.5,24.5 0 0 0 2.072266,0.10743 24.5,24.5 0 0 0 -11.394532,3.01953 24.5,24.5 0 0 0 -0.0098,0.006 24.5,24.5 0 0 0 -2.046875,1.26367 24.5,24.5 0 0 0 -7.310547,7.85156 24.533893,24.466154 44.960397 0 0 1.05664,-2.06836 24.533893,24.466154 44.960397 0 0 1.167969,-3.2793 24.466154,24.533893 45.039603 0 0 0.07031,-0.25 24.533893,24.466154 44.960397 0 0 0.464844,-2.01172 24.466154,24.533893 45.039603 0 0 0.0957,-0.54492 24.533893,24.466154 44.960397 0 0 0.21875,-1.69726 24.466154,24.533893 45.039603 0 0 0.07031,-0.97071 24.533893,24.466154 44.960397 0 0 0.03711,-1.31835 24.466154,24.533893 45.039603 0 0 -0.03711,-1.31641 24.533893,24.466154 44.960397 0 0 -0.07031,-0.97266 24.466154,24.533893 45.039603 0 0 -0.21875,-1.69726 24.533893,24.466154 44.960397 0 0 -0.0957,-0.54493 24.466154,24.533893 45.039603 0 0 -0.464844,-2.00781 24.533893,24.466154 44.960397 0 0 -0.07227,-0.25976 24.466154,24.533893 45.039603 0 0 -0.75,-2.20508 24.533893,24.466154 44.960397 0 0 -0.002,-0.004 24.466154,24.533893 45.039603 0 0 -1.494141,-3.17773 z m 21.134766,12.20312 a 24.5,24.5 0 0 1 0.002,0 24.466154,24.533893 45.039603 0 0 -0.84375,1.66797 24.533893,24.466154 44.960397 0 0 -0.433594,0.95117 24.466154,24.533893 45.039603 0 0 -0.49414,1.26563 24.533893,24.466154 44.960397 0 0 -0.359375,1.05859 24.466154,24.533893 45.039603 0 0 -0.345703,1.24024 24.533893,24.466154 44.960397 0 0 -0.267579,1.14648 24.466154,24.533893 45.039603 0 0 -0.216796,1.25195 24.533893,24.466154 44.960397 0 0 -0.150391,1.16993 24.466154,24.533893 45.039603 0 0 -0.08984,1.24804 24.533893,24.466154 44.960397 0 0 -0.0332,1.21289 24.466154,24.533893 45.039603 0 0 0.0332,1.21094 24.533893,24.466154 44.960397 0 0 0.08984,1.25 24.466154,24.533893 45.039603 0 0 0.150391,1.16992 24.533893,24.466154 44.960397 0 0 0.216796,1.25196 24.466154,24.533893 45.039603 0 0 0.265626,1.14257 24.533893,24.466154 44.960397 0 0 0.349609,1.25196 24.466154,24.533893 45.039603 0 0 0.351562,1.03515 24.533893,24.466154 44.960397 0 0 0.50586,1.29297 24.466154,24.533893 45.039603 0 0 0.421875,0.92578 24.533893,24.466154 44.960397 0 0 0.861328,1.69922 24.5,24.5 0 0 0 -0.0059,0 24.5,24.5 0 0 0 -5.414062,-6.45508 24.5,24.5 0 0 0 -1.910156,-1.45898 24.5,24.5 0 0 0 -0.0059,-0.004 24.5,24.5 0 0 0 -13.480468,-4.3125 24.5,24.5 0 0 0 11.40039,-3.02539 24.5,24.5 0 0 0 9.402344,-9.1875 z m -21.185547,12.2461 a 24.533893,24.466154 44.960397 0 0 -0.08594,24.25976 49.051804,48.795193 0 0 0 0.195312,0.01 24.533893,24.466154 44.960397 0 0 -0.109375,-24.26953 z m -21.228515,12.19726 a 24.5,24.5 0 0 0 -8.794922,1.68164 49.051804,48.795193 0 0 0 4.910156,3.35938 24.5,24.5 0 0 0 3.884766,-5.04102 z m 0.02148,0.0254 a 24.533893,24.466154 44.960397 0 0 -2.285156,5.46485 24.466154,24.533893 45.039603 0 0 -0.06445,0.23242 24.533893,24.466154 44.960397 0 0 -0.05469,0.23437 49.051804,48.795193 0 0 0 5.357422,2.52149 24.533893,24.466154 44.960397 0 0 -0.1875,-1.08008 24.466154,24.533893 45.039603 0 0 -0.269531,-1.15625 24.533893,24.466154 44.960397 0 0 -0.339844,-1.22266 24.466154,24.533893 45.039603 0 0 -0.369141,-1.08789 24.533893,24.466154 44.960397 0 0 -0.492187,-1.25781 24.466154,24.533893 45.039603 0 0 -0.423828,-0.92773 24.533893,24.466154 44.960397 0 0 -0.871095,-1.72071 z"
           style="fill:none;fill-opacity:0.19215686;stroke:#003100;stroke-width:0.26456693;stroke-miterlimit:4;stroke-dasharray:none;stroke-dashoffset:0;stroke-opacity:1"
           inkscape:connector-curvature="0" />
        <ellipse
           ry="48.790695"
           rx="48.919922"
           cy="218.53615"
           cx="66.951172"
           id="path1164"
           style="opacity:1;vector-effect:none;fill:none;fill-opacity:1;fill-rule:evenodd;stroke:#003100;stroke-width:0.26456693;stroke-linecap:butt;stroke-linejoin:miter;stroke-miterlimit:4;stroke-dasharray:none;stroke-dashoffset:0;stroke-opacity:1" />
      </g>
      <circle
         r="7"
         cy="228.76273"
         cx="146.15248"
         id="circle1175"
         style="opacity:1;vector-effect:none;fill:#ffff81;fill-opacity:1;fill-rule:evenodd;stroke:#003100;stroke-width:0.7;stroke-linecap:butt;stroke-linejoin:miter;stroke-miterlimit:4;stroke-dasharray:none;stroke-dashoffset:0;stroke-opacity:1" />
      <circle
         style="opacity:1;vector-effect:none;fill:#ffff81;fill-opacity:1;fill-rule:evenodd;stroke:#003100;stroke-width:0.7;stroke-linecap:butt;stroke-linejoin:miter;stroke-miterlimit:4;stroke-dasharray:none;stroke-dashoffset:0;stroke-opacity:1"
         id="circle1180"
         cx="146.07582"
         cy="203.91209"
         r="7" />
      <circle
         style="opacity:1;vector-effect:none;fill:#ffff81;fill-opacity:1;fill-rule:evenodd;stroke:#003100;stroke-width:0.7;stroke-linecap:butt;stroke-linejoin:miter;stroke-miterlimit:4;stroke-dasharray:none;stroke-dashoffset:0;stroke-opacity:1"
         id="circle1182"
         cx="103.40311"
         cy="228.76273"
         r="7" />
      <circle
         r="7"
         cy="203.91209"
         cx="103.71115"
         id="circle1184"
         style="opacity:1;vector-effect:none;fill:#ffff81;fill-opacity:1;fill-rule:evenodd;stroke:#003100;stroke-width:0.7;stroke-linecap:butt;stroke-linejoin:miter;stroke-miterlimit:4;stroke-dasharray:none;stroke-dashoffset:0;stroke-opacity:1" />
      <circle
         r="7"
         cy="217.07758"
         cx="124.9461"
         id="circle1186"
         style="opacity:1;vector-effect:none;fill:#ffff82;fill-opacity:1;fill-rule:evenodd;stroke:#003100;stroke-width:0.7;stroke-linecap:butt;stroke-linejoin:miter;stroke-miterlimit:4;stroke-dasharray:none;stroke-dashoffset:0;stroke-opacity:1"
         inkscape:export-xdpi="343"
         inkscape:export-ydpi="343" />
      <circle
         style="opacity:1;vector-effect:none;fill:#ffff81;fill-opacity:1;fill-rule:evenodd;stroke:#003100;stroke-width:0.7;stroke-linecap:butt;stroke-linejoin:miter;stroke-miterlimit:4;stroke-dasharray:none;stroke-dashoffset:0;stroke-opacity:1"
         id="circle1188"
         cx="124.9461"
         cy="240.88065"
         r="7" />
      <circle
         style="opacity:1;vector-effect:none;fill:#ffff81;fill-opacity:1;fill-rule:evenodd;stroke:#003100;stroke-width:0.7;stroke-linecap:butt;stroke-linejoin:miter;stroke-miterlimit:4;stroke-dasharray:none;stroke-dashoffset:0;stroke-opacity:1"
         id="path1173"
         cx="124.9461"
         cy="191.97615"
         r="7" />
    </g>
  </g>
</svg>
