<?xml version="1.0" encoding="UTF-8"?>
<svg id="Layer_1" data-name="Layer 1" xmlns="http://www.w3.org/2000/svg" xmlns:xlink="http://www.w3.org/1999/xlink" viewBox="0 0 2000 2000">
  <defs>
    <style>
      .cls-1 {
        mask: url(#mask);
      }

      .cls-2 {
        fill: url(#radial-gradient);
      }

      .cls-3 {
        fill: #fff;
      }

      .cls-4 {
        fill: #006838;
      }
    </style>
    <radialGradient id="radial-gradient" cx="-570.74" cy="47514.96" fx="-570.74" fy="47514.96" r="386.07" gradientTransform="translate(1581.4776 7376.7289) scale(1 -.1257)" gradientUnits="userSpaceOnUse">
      <stop offset="0" stop-color="#fff"/>
      <stop offset="1" stop-color="#231f20"/>
    </radialGradient>
    <mask id="mask" x="422.68" y="1156.03" width="1176.12" height="496.13" maskUnits="userSpaceOnUse">
      <rect class="cls-2" x="422.68" y="1156.03" width="1176.12" height="496.13" transform="translate(2021.4776 2808.1963) rotate(-180)"/>
    </mask>
  </defs>
  <rect class="cls-3" width="2000" height="2000"/>
  <g>
    <g class="cls-1">
      <path class="cls-4" d="M534.5,1400.23c0,49.55,208.4,89.73,465.49,89.73s465.51-40.17,465.51-89.73-208.43-89.73-465.51-89.73-465.49,40.18-465.49,89.73Z"/>
    </g>
    <path class="cls-4" d="M1345.34,532.59c.09.19,156.1,319.32-136.35,397.45,89.24-91.87,114.6-218.51,114.6-218.51-52.18,112.07-105.51,167.57-133.21,191.02-65.15-109.77,12.27-172.78,69.91-237.08,11.15-12.44,21.24-25.2,30.24-37.66-75.71-72.92-178.64-117.77-292.06-117.77-232.54,0-421.05,188.51-421.05,421.05,0,22.45,1.76,44.49,5.15,65.98,49.49,24.64,104.79,47.3,155.11,56.74,29.52,5.53,59.81-5.43,79.02-28.51,13.7-16.47,29.85-33.38,48.86-50.12,103.5-91.14,98.52-127.72,98.52-127.72,0,0,52.89,17.75,20.01,92.29-12.54,28.44-69.04,75.27-62.61,98.33,3.98,14.28,74.09-.05,142.1-25.35,72.59-27.01,143.81-65.29,162.95-54.32,47.51,27.22-188.72,111.72-186.42,133.53,2.3,21.77,233.01-70.18,240.97-30.14,7.09,35.66-242.76,82.97-245.71,100.49-3.46,20.52,220.43-37.27,221.39-4.61,1.01,34.71-226.6,58.49-221.05,82.18,2.51,10.73,160.41-25.63,163.6-5.2,3.83,24.53-153.88,63.37-208.25,66.17-127.01,6.54-225.95-28-302.6-84.86,76.96,83.7,187.36,136.17,310.03,136.17,232.54,0,421.05-188.51,421.05-421.05,0-17.77-1.11-35.28-3.24-52.48,9.53-62.35,21.12-218.29-70.93-346.01ZM1145.45,944.57c-16.07-13.6-46.99-45.78-77.25-110.77,0,0,14.7,73.43,66.45,126.71-169.64-45.31-79.07-230.48-79.07-230.48,0,0,16.88,40.87,49.32,77.06,33.43,37.28,78.32,73.82,40.54,137.48Z"/>
  </g>
</svg>