<svg width="332.5537705" height="320" xmlns="http://www.w3.org/2000/svg">
    <style>
        .outerCircle {
            fill: white;
            stroke: #555;
            stroke-width: 7;
            stroke-opacity: .3;
        }

        .circle {
            fill: none;
            stroke: #555;
            stroke-width: .3;
            stroke-opacity: .3;
        }

        .innerCircle {
            fill: white;
            stroke: #555;
            stroke-width: 1.7;
            stroke-opacity: .4;
        }
    </style>
    <defs>
        <clipPath id="clean">
            <rect width="332.5537705" height="320" />
        </clipPath>
    </defs>
    <g>

        <circle cx="-38.2768775" cy="-32" r="64" class="circle" clip-path="url(#clean)" />
        <circle cx="-38.2768775" cy="32" r="64" class="circle" clip-path="url(#clean)" />
        <circle cx="-38.2768775" cy="96" r="64" class="circle" clip-path="url(#clean)" />
        <circle cx="-38.2768775" cy="160" r="64" class="circle" clip-path="url(#clean)" />
        <circle cx="-38.2768775" cy="224" r="64" class="circle" clip-path="url(#clean)" />
        <circle cx="-38.2768775" cy="288" r="64" class="circle" clip-path="url(#clean)" />
        <circle cx="-38.2768775" cy="352" r="64" class="circle" clip-path="url(#clean)" />

        <circle cx="17.1487483" cy="0" r="64" class="circle" clip-path="url(#clean)" />
        <circle cx="17.1487483" cy="64" r="64" class="circle" clip-path="url(#clean)" />
        <circle cx="17.1487483" cy="128" r="64" class="circle" clip-path="url(#clean)" />
        <circle cx="17.1487483" cy="192" r="64" class="circle" clip-path="url(#clean)" />
        <circle cx="17.1487483" cy="256" r="64" class="circle" clip-path="url(#clean)" />
        <circle cx="17.1487483" cy="320" r="64" class="circle" clip-path="url(#clean)" />

        <circle cx="72.5743741" cy="-32" r="64" class="circle" clip-path="url(#clean)" />
        <circle cx="72.5743741" cy="32" r="64" class="circle" clip-path="url(#clean)" />
        <circle cx="72.5743741" cy="96" r="64" class="circle" clip-path="url(#clean)" />
        <circle cx="72.5743741" cy="160" r="64" class="circle" clip-path="url(#clean)" />
        <circle cx="72.5743741" cy="224" r="64" class="circle" clip-path="url(#clean)" />
        <circle cx="72.5743741" cy="288" r="64" class="circle" clip-path="url(#clean)" />
        <circle cx="72.5743741" cy="352" r="64" class="circle" clip-path="url(#clean)" />

        <circle cx="128" cy="0" r="64" class="circle" clip-path="url(#clean)" />
        <circle cx="128" cy="64" r="64" class="circle" clip-path="url(#clean)" />
        <circle cx="128" cy="128" r="64" class="circle" clip-path="url(#clean)" />
        <circle cx="128" cy="192" r="64" class="circle" clip-path="url(#clean)" />
        <circle cx="128" cy="256" r="64" class="circle" clip-path="url(#clean)" />
        <circle cx="128" cy="320" r="64" class="circle" clip-path="url(#clean)" />

        <circle cx="183.4256258" cy="-32" r="64" class="circle" clip-path="url(#clean)" />
        <circle cx="183.4256258" cy="32" r="64" class="circle" clip-path="url(#clean)" />
        <circle cx="183.4256258" cy="96" r="64" class="circle" clip-path="url(#clean)" />
        <circle cx="183.4256258" cy="160" r="64" class="circle" clip-path="url(#clean)" />
        <circle cx="183.4256258" cy="224" r="64" class="circle" clip-path="url(#clean)" />
        <circle cx="183.4256258" cy="288" r="64" class="circle" clip-path="url(#clean)" />
        <circle cx="183.4256258" cy="352" r="64" class="circle" clip-path="url(#clean)" />

        <circle cx="238.8512516" cy="0" r="64" class="circle" clip-path="url(#clean)" />
        <circle cx="238.8512516" cy="64" r="64" class="circle" clip-path="url(#clean)" />
        <circle cx="238.8512516" cy="128" r="64" class="circle" clip-path="url(#clean)" />
        <circle cx="238.8512516" cy="192" r="64" class="circle" clip-path="url(#clean)" />
        <circle cx="238.8512516" cy="256" r="64" class="circle" clip-path="url(#clean)" />
        <circle cx="238.8512516" cy="320" r="64" class="circle" clip-path="url(#clean)" />

        <circle cx="294.2768775" cy="-32" r="64" class="circle" clip-path="url(#clean)" />
        <circle cx="294.2768775" cy="32" r="64" class="circle" clip-path="url(#clean)" />
        <circle cx="294.2768775" cy="96" r="64" class="circle" clip-path="url(#clean)" />
        <circle cx="294.2768775" cy="160" r="64" class="circle" clip-path="url(#clean)" />
        <circle cx="294.2768775" cy="224" r="64" class="circle" clip-path="url(#clean)" />
        <circle cx="294.2768775" cy="288" r="64" class="circle" clip-path="url(#clean)" />
        <circle cx="294.2768775" cy="352" r="64" class="circle" clip-path="url(#clean)" />

        <circle cx="349.7025033" cy="0" r="64" class="circle" clip-path="url(#clean)" />
        <circle cx="349.7025033" cy="64" r="64" class="circle" clip-path="url(#clean)" />
        <circle cx="349.7025033" cy="128" r="64" class="circle" clip-path="url(#clean)" />
        <circle cx="349.7025033" cy="192" r="64" class="circle" clip-path="url(#clean)" />
        <circle cx="349.7025033" cy="256" r="64" class="circle" clip-path="url(#clean)" />
        <circle cx="349.7025033" cy="320" r="64" class="circle" clip-path="url(#clean)" />

        <circle cx="72.5743741" cy="96" r="16" class="innerCircle" clip-path="url(#clean)" />
        <circle cx="72.5743741" cy="160" r="16" class="innerCircle" clip-path="url(#clean)" />
        <circle cx="128" cy="64" r="16" class="innerCircle" clip-path="url(#clean)" />
        <circle cx="128" cy="128" r="16" class="innerCircle" clip-path="url(#clean)" />
        <circle cx="128" cy="192" r="16" class="innerCircle" clip-path="url(#clean)" />
        <circle cx="183.4256258" cy="96" r="16" class="innerCircle" clip-path="url(#clean)" />
        <circle cx="183.4256258" cy="160" r="16" class="innerCircle" clip-path="url(#clean)" />
        <circle cx="294.2768775" cy="288" r="16" class="innerCircle" clip-path="url(#clean)" />
    </g>
</svg>